<svg xmlns="http://www.w3.org/2000/svg" xmlns:xlink="http://www.w3.org/1999/xlink" viewBox="0 0 144.5 131.7">
  <defs>
    <style>
      .a {
        fill: none;
      }

      .b {
        opacity: 0.14;
      }

      .c {
        isolation: isolate;
      }

      .d {
        clip-path: url(#a);
      }

      .e {
        fill: #edecec;
      }

      .f {
        fill: #e6e5e5;
      }

      .g {
        fill: #f4f2f2;
      }

      .h {
        clip-path: url(#b);
      }

      .i {
        clip-path: url(#c);
      }

      .j {
        fill: #d6d4d4;
      }

      .k {
        clip-path: url(#d);
      }

      .l {
        fill: #e0dede;
      }

      .m {
        fill: #22190a;
      }

      .n {
        fill: #75421b;
      }

      .o {
        fill: #f0eeee;
      }

      .p {
        fill: #f7f7f7;
      }

      .q {
        opacity: 0.04;
      }
    </style>
    <clipPath id="a">
      <path class="a" d="M95.4,75l-9.9-4c3.7-1.7,6.6-9.1,6.6-16.4l9.9,4C102,65.9,99.1,73.2,95.4,75Z"/>
    </clipPath>
    <clipPath id="b">
      <path class="a" d="M87.9,16.6l9.9,4c2.3,1,4,4.9,4,10.3l-9.9-4C91.9,21.5,90.2,17.6,87.9,16.6Z"/>
    </clipPath>
    <clipPath id="c">
      <path class="a" d="M90.8,6.4l9.9,4a5.1,5.1,0,0,0-4,.2L86.8,6.7A5.1,5.1,0,0,1,90.8,6.4Z"/>
    </clipPath>
    <clipPath id="d">
      <path class="a" d="M87.1,20.1l-.9,80.2c0-4.9-4.2-9.9-12.6-13.6-16.4-7.3-42.6-7.3-58.4-.1C7.6,90.1,3.7,94.7,3.7,99.3l.9-80.1c.1-4.7,3.9-9.3,11.6-12.8C32-.8,58.1-.8,74.5,6.5,83,10.3,87.2,15.2,87.1,20.1Z"/>
    </clipPath>
  </defs>
  <g>
    <path class="b" d="M3.6,107.4a104.3,104.3,0,0,0,22.3,14.2c26,12.3,50.1,10.4,64.5,9.2a113.7,113.7,0,0,0,35.2-8.7c9.3-4,18.5-8,18.9-14.6s-6.2-11.6-11.4-14c-3.3-1.5-5.1-1.2-12.4-2.2s-13.4-2.5-16.7-3c-14.2-2.6-31.8,3.1-39.2,5.4C51.1,97.9,31.4,103,3.6,107.4Z"/>
    <g class="c">
      <g class="c">
        <g class="d">
          <g class="c">
            <path class="e" d="M95.4,75l-9.9-4c3.7-1.7,6.6-9.1,6.6-16.4l9.9,4c0,7.3-2.9,14.6-6.6,16.4"/>
          </g>
        </g>
      </g>
      <polygon class="f" points="87.3 78.7 77.4 74.7 85.5 71 95.4 75 87.3 78.7"/>
      <polygon class="g" points="102 58.6 92.1 54.6 91.9 26.9 101.8 30.9 102 58.6"/>
      <g class="c">
        <g class="h">
          <g class="c">
            <path class="f" d="M101.8,30.9l-9.9-4c0-5.4-1.7-9.3-4-10.3l9.9,4c2.3,1,4,4.9,4,10.3"/>
          </g>
        </g>
      </g>
      <g class="c">
        <g class="i">
          <g class="c">
            <path class="f" d="M96.7,10.6,86.8,6.7a5.1,5.1,0,0,1,4-.3l9.9,4a5.1,5.1,0,0,0-4,.2"/>
          </g>
        </g>
      </g>
      <path class="j" d="M96.7,10.6c5.5-2.6,10,4.2,10.1,15.2l.2,31.8c0,12.6-5.1,25.2-11.4,28.1l-8.2,3.8V78.7L95.4,75c3.7-1.8,6.6-9.1,6.6-16.4l-.2-27.7c0-7.3-3-11.9-6.7-10.1L87,24.5V15.1Z"/>
      <polygon class="g" points="87 15.1 77.1 11.2 86.8 6.7 96.7 10.6 87 15.1"/>
    </g>
    <g class="c">
      <g class="k">
        <path class="l" d="M85.5,14.8a18.9,18.9,0,0,0-4.9-4.9,31.5,31.5,0,0,0-6.1-3.4A60.6,60.6,0,0,0,60.1,2.3C45.2-.3,27.9,1.1,16.2,6.4,8.5,9.9,4.7,14.5,4.6,19.2L3.7,99.3c0-4.6,3.9-9.2,11.5-12.7,11.7-5.4,29.1-6.7,43.9-4.1a61.5,61.5,0,0,1,14.5,4.2,34.8,34.8,0,0,1,6.1,3.4A17,17,0,0,1,84.5,95a10,10,0,0,1,1.7,5.3l.9-80.2A10.1,10.1,0,0,0,85.5,14.8Z"/>
      </g>
    </g>
    <g>
      <path class="m" d="M14,48.3c17.1,8.1,44.7,8.1,61.8,0s17.1-21.4,0-29.6-44.7-8.1-61.8,0S-3,40.1,14,48.3Z"/>
      <path class="n" d="M15.1,39.6a1.1,1.1,0,0,1,1.1,0c.3.1.3.3,0,.5a2.1,2.1,0,0,1-1.1,0c-.3-.2-.3-.4,0-.5ZM9,35.4a2.1,2.1,0,0,1,1.6-.1c.6.1.7.5.4.8a2.5,2.5,0,0,1-1.7.1c-.6-.2-.7-.5-.3-.8Zm4.2.9h.4v.2h-.4v-.2Zm17.2,7.4c.3.6-.3,1.1-1.4,1.3a2.9,2.9,0,0,1-2.6-.6c-.4-.6.3-1.1,1.3-1.3a3.2,3.2,0,0,1,2.7.6Zm-9.6-5a2.1,2.1,0,0,1,1.1,0q.5.3,0,.6a2.1,2.1,0,0,1-1.1,0q-.4-.3,0-.6Zm-4.2-2.6a2.8,2.8,0,0,1,2.4-.2c.8.2,1,.7.5,1.1a2.8,2.8,0,0,1-2.4.2c-.8-.2-1-.7-.5-1.1Zm-.1-1c.2.1.2.2.1.3a.6.6,0,0,1-.6,0c-.2,0-.2-.2-.1-.3a.6.6,0,0,1,.6,0Zm-4.8-1.7a4.1,4.1,0,0,1,3.1-.3c1.1.3,1.3,1,.6,1.5a4.1,4.1,0,0,1-3.1.3c-1-.4-1.3-1-.6-1.5Zm-2-1.7h.8c.3,0,.3.2.1.4a1.1,1.1,0,0,1-.8,0c-.3-.1-.3-.2-.1-.4Zm8.6,2.8c-.1-.1,0-.2.2-.2s.3,0,.3.1,0,.2-.2.2-.3,0-.3-.1Zm-3.8-2.7a1.9,1.9,0,0,1,1.1-.1c.3.1.4.4.2.5a1.4,1.4,0,0,1-1.1.1c-.3-.1-.4-.3-.2-.5Zm-2.2-2.6a4.8,4.8,0,0,1,3.8-.3c1.2.4,1.6,1.2.7,1.8A4.5,4.5,0,0,1,13,31c-1.2-.4-1.6-1.2-.7-1.8Zm-1.8-1a1.4,1.4,0,0,1,1.1-.1c.4.1.4.4.2.5a1.3,1.3,0,0,1-1.1.1c-.3-.1-.4-.3-.2-.5Zm3.3-.2c0-.1.1-.2.3-.2h.3c.1.1,0,.2-.2.2Zm-2.4-2a1.8,1.8,0,0,1,1.6-.1c.6.1.7.5.4.8a2.5,2.5,0,0,1-1.7.1c-.5-.2-.7-.5-.3-.8Zm4.1.1a3.3,3.3,0,0,1,2.6-.2c.9.2,1.1.8.5,1.2a3.8,3.8,0,0,1-2.6.3c-.9-.3-1.1-.9-.5-1.3Zm-.8-2.3a1.8,1.8,0,0,1,1.6-.2c.6.2.7.5.4.8a2.5,2.5,0,0,1-1.7.2c-.6-.2-.7-.6-.3-.8Zm4.6.5c.3.1.4.3.2.4a.8.8,0,0,1-.8.1c-.3-.1-.4-.3-.2-.4Zm-3.5-2.4a2.2,2.2,0,0,1,1.6-.2c.6.2.7.6.4.8a2,2,0,0,1-1.7.2c-.5-.2-.7-.5-.3-.8Zm3,1.8c-.3-.1-.4-.4-.2-.5a1.4,1.4,0,0,1,1.1-.1c.4.1.4.3.2.5a1.9,1.9,0,0,1-1.1.1Zm1.7.7a.9.9,0,0,1,1-.1c.4.1.5.3.2.5a1.6,1.6,0,0,1-1,.1c-.4-.1-.5-.4-.2-.5Zm.6,1.4v-.2h.5v.2Zm1.3.5h.4l.2.2c0,.1-.2.1-.3.1s-.3-.1-.3-.2Zm-2.7-.1c-.1-.1,0-.2.2-.2h.4l-.3.2Zm1.7.7v.2h-.4v-.2Zm-2.1,1.2a2,2,0,0,1,1.7-.2c.6.2.7.5.3.8a1.8,1.8,0,0,1-1.6.1c-.6-.1-.7-.5-.4-.7Zm-2.2.1h.2c.2-.1.3,0,.4.1h-.3a.2.2,0,0,1-.3-.1Zm1.6,1.9c-.4-.2-.5-.4-.2-.6a1.6,1.6,0,0,1,1-.1c.4.2.5.4.2.6a1.6,1.6,0,0,1-1,.1Zm-.3,1.4v-.2h.4v.2Zm-1.3,1.7c-.4-.1-.5-.3-.2-.5a1.3,1.3,0,0,1,1.1-.1c.3.1.4.3.2.5a1.4,1.4,0,0,1-1.1.1ZM29,42.1q-.3-.1,0-.3h.6q.3.2,0,.3a.6.6,0,0,1-.6,0Zm-2.4-.3h-.4c-.1-.1,0-.2.2-.2h.4l-.2.2ZM25.3,23.3c1.8-1.2,5.1-2,7.9-2.5s5.1-1.4,7.7-2a60.2,60.2,0,0,1,11.5-1.5,48.8,48.8,0,0,1,16.3,2.8,19.5,19.5,0,0,1,5.2,2.7c1.6,1.1,3.7,2,4.9,3.2a15.5,15.5,0,0,1,2.3,3.1c0-.2.3-.3.8-.4a1.7,1.7,0,0,1,1.5.4c.2.3-.2.6-.8.7a1.8,1.8,0,0,1-1.3-.2l.9,2c1,2.8-.9,5.5-2.9,8.1a8.5,8.5,0,0,1-2,2.3c-2.2,1.7-6.5,3.3-10.5,4l-3.6.4-3.8.3H57.8c-2,0-4-.3-6-.2s-4.3.5-6.6.6H43.8l-1.1-.2a18.6,18.6,0,0,0-3.4-.5h0s-.2.1-.3,0-.3-.1-.2-.1h-.3a22.9,22.9,0,0,1-4.1-.8c-2.7-.9-2.1-2.8-4.6-3.9s-5.9-1.5-6.5-3.5-.3-2-1.4-3-1.5-1.1-1.5-1.9,2.4-3.2,3.2-4.8-.3-2.6.4-3.8a4,4,0,0,1,1.3-1.3Zm-3.6,0h.4v.2h-.4v-.2Zm-2.3-1.6a2.4,2.4,0,0,1,1.7-.1c.5.2.7.5.3.8a2.4,2.4,0,0,1-1.7.1c-.5-.1-.7-.5-.3-.8Zm4.5.6c.3.1.4.3.2.5a1.3,1.3,0,0,1-1.1.1c-.3-.1-.4-.3-.2-.5a1.4,1.4,0,0,1,1.1-.1Zm-4.4-1.9c-.2-.2.1-.4.5-.4s.8,0,.9.2-.1.4-.5.5-.8-.1-.9-.3Zm3.4-.1c.4,0,.7.2.7.4a.8.8,0,0,1-.9.3c-.4,0-.7-.2-.7-.4s.5-.3.9-.3ZM26,22.4v.2h-.4v-.3Zm-.1-.8a.8.8,0,0,1-.9.3c-.4,0-.7-.2-.6-.4s.4-.3.9-.3.7.2.6.4Zm-.1-.9h.3c.2,0,.3.1.3.2h-.3c-.2,0-.3-.1-.3-.2Zm2.3.4c0-.1.2-.2.5-.1s.4.1.3.2-.2.2-.5.2-.4-.2-.3-.3Zm-3.6-2.2c.1-.3.7-.5,1.3-.5s1.2.4,1.1.7-.7.5-1.4.5-1.1-.4-1-.7Zm6.4-.2c1.2.1,2,.6,1.9,1.2s-1.3,1-2.6.9-2.1-.6-1.9-1.2,1.3-1,2.6-.9Zm-1.8-1.1q.1-.3.9-.3c.4,0,.7.2.6.4s-.4.4-.8.3-.8-.2-.7-.4ZM35,19.2c.5,0,.7.2.7.4a.8.8,0,0,1-.9.3c-.4,0-.7-.2-.6-.4s.4-.3.8-.3Zm-2.6-1.9c0-.1.3-.2.7-.2s.5.2.5.3a.8.8,0,0,1-.7.3c-.3-.1-.6-.2-.5-.4Zm6,1.6c0,.1-.2.1-.3.1s-.3-.1-.3-.2h.4l.2.2Zm-2.2-1.5c.7,0,1.1.3,1,.6s-.7.5-1.3.5-1.2-.3-1.1-.7.7-.5,1.4-.4Zm-.5-.9c0-.2.5-.4.9-.3s.9.2.8.4-.5.4-1,.4-.8-.3-.7-.5ZM41.6,18v.3h-.5V18Zm-2.1-1c.6.1,1.1.4,1,.7s-.7.5-1.4.4-1.1-.3-1-.6.7-.5,1.4-.5Zm-.3-.8c.1-.2.5-.3.9-.3s.7.2.6.4-.4.4-.8.3-.8-.2-.7-.4Zm3.1,1.3h-.4v-.2h.4v.2Zm.8,0c0-.1.3-.2.6-.2s.6.2.5.3-.3.3-.6.3-.6-.2-.5-.4Zm-.8-1.4c.4,0,.7.2.7.4a.8.8,0,0,1-.9.3c-.4,0-.7-.2-.7-.4s.5-.3.9-.3Zm1.9.7V17h-.5v-.2Zm3.4.4h-.4l-.2-.2c0-.1.2-.1.3-.1s.3.1.3.2Zm-4.4-1.4c.1-.3.7-.5,1.4-.5s1.1.4,1,.7-.7.5-1.4.5-1.1-.4-1-.7Zm4,.2h.3c.2,0,.3.1.3.2h-.3c-.2,0-.3-.1-.3-.2Zm2.6.1c.1-.3.7-.5,1.3-.5s1.2.4,1.1.7-.7.5-1.4.5-1.1-.4-1-.7Zm-1.9-1.2a1.2,1.2,0,0,1,1.3-.5c.7,0,1.2.3,1.1.6a1.3,1.3,0,0,1-1.4.5c-.6,0-1.1-.3-1-.6Zm6.1.9c.4,0,.7.2.7.4s-.5.3-.9.3-.7-.2-.7-.4a.8.8,0,0,1,.9-.3Zm-2-.9c0-.2.4-.4.9-.3s.7.2.7.4a.9.9,0,0,1-1,.3c-.4,0-.7-.2-.6-.4ZM56.7,16c.1-.4,1-.7,1.9-.7s1.6.5,1.4.9-1,.8-1.9.7-1.6-.4-1.4-.9Zm-2.1-1c-.2-.3.1-.6.7-.7a1.6,1.6,0,0,1,1.5.4c.2.3-.1.6-.7.7a1.6,1.6,0,0,1-1.5-.4Zm9.6,2.7c.1.1-.1.4-.5.4s-.9,0-1-.2.1-.4.5-.5.9.1,1,.3ZM74,21.3a1.7,1.7,0,0,1,1.5.4c.2.3-.1.6-.8.7a1.7,1.7,0,0,1-1.5-.4c-.2-.3.2-.6.8-.7Zm-7-2.5c-.1-.1,0-.1.1-.2h.4c.1.1,0,.2-.2.2Zm-1.9-1.4h.4l.2.2h-.4l-.2-.2Zm-1.8-1.3c-.1-.1,0-.2.2-.3l.6.2c0,.1-.1.2-.3.2s-.5,0-.5-.1Zm5,.8a1.7,1.7,0,0,1,1.5.4c.2.3-.2.6-.8.7a1.7,1.7,0,0,1-1.5-.4c-.2-.3.1-.6.8-.7Zm5.3,2c.1.1,0,.3-.3.4l-.8-.2c-.1-.2.1-.3.4-.4s.6,0,.7.2Zm3.1,2h-.4v-.2h.4v.2Zm1.9,2.3h-.4L78,23h.4l.2.2Zm-8.4-3.8c-.1-.1,0-.2.2-.2h.4l-.2.2c-.2,0-.4,0-.4-.1Zm2.4.8a1.1,1.1,0,0,1,1,.2c.1.2-.1.4-.5.5s-.9,0-1-.2.1-.4.5-.5Zm11.2,4.4c.3.5-.2,1-1.2,1.1a2.9,2.9,0,0,1-2.4-.5c-.3-.5.3-1,1.2-1.2s2.1.1,2.4.6Zm-8-1.5a.2.2,0,0,1,.2-.2h.4c0,.1,0,.2-.2.2Zm2.9.7c.7.1,1.1.4.9.7s-.8.5-1.4.4-1-.4-.9-.7a1.5,1.5,0,0,1,1.4-.4Zm5.2,3.1c.1.2-.1.4-.5.5s-.9-.1-1-.3.1-.4.5-.4a1.1,1.1,0,0,1,1,.2Zm-3.1-.4h-.4v-.2h.5ZM85.6,31c.2.3-.2.6-.8.7s-1.3,0-1.5-.3.1-.6.8-.7,1.3,0,1.5.3Zm.9,2.3a.2.2,0,0,1-.2.2h-.4c0-.1,0-.1.2-.2Zm-1.1,1.9a1.7,1.7,0,0,1-1.4,0c-.4-.2-.4-.5,0-.7a1.7,1.7,0,0,1,1.4,0c.4.2.4.5,0,.7Zm1,1.6a2,2,0,0,1-1.7-.1c-.4-.2-.4-.5.1-.8a1.8,1.8,0,0,1,1.6.1c.5.2.5.5,0,.8Zm-1.6,1.6a2.6,2.6,0,0,1-1.5,0c-.4-.2-.4-.6,0-.7a1.9,1.9,0,0,1,1.5,0c.4.2.4.5,0,.7Zm-.2.8H84q-.3-.2,0-.3a.6.6,0,0,1,.6,0,.2.2,0,0,1,0,.3Zm0,.9a.2.2,0,0,1-.2.2l-.4-.2h.3c.2,0,.3,0,.3.1ZM82.1,40a.9.9,0,0,1-.7,0q-.3-.2,0-.3a.9.9,0,0,1,.7,0,.2.2,0,0,1,0,.3Zm1.2,1.7H82.1c-.3-.2-.3-.5,0-.6a1.3,1.3,0,0,1,1.2,0q.5.3,0,.6Zm-3.5-1v-.2h.5v.2Zm1.5.7h-.4v-.2h.4v.2Zm-1.6.2c0,.1-.1.2-.3.2s-.3-.1-.3-.2h.6Zm1,1.3a2.1,2.1,0,0,1-1.1,0c-.3-.2-.3-.4,0-.5a1.1,1.1,0,0,1,1.1,0c.3.1.3.4,0,.5Zm-3.5.2c0-.1.1-.2.3-.2s.3.1.3.2-.2.1-.3.1-.3,0-.3-.1Zm2.7,1.3a2.5,2.5,0,0,1-1.7,0c-.5-.2-.5-.6,0-.8a2.5,2.5,0,0,1,1.7,0c.5.2.5.6,0,.8Zm-3.3.1a1.3,1.3,0,0,1-1.2,0c-.4-.2-.4-.5,0-.6a1.3,1.3,0,0,1,1.2,0q.6.3,0,.6Zm-2.8.3h.6c0,.1-.2.2-.3.2s-.3-.1-.3-.2Zm2.7,1.4a2.5,2.5,0,0,1-1.7,0q-.7-.5,0-.9a2.8,2.8,0,0,1,1.8,0c.5.3.4.7-.1.9Zm-3.7-.4a1.7,1.7,0,0,1-1,0c-.3-.2-.3-.4,0-.5a1.1,1.1,0,0,1,1.1,0c.3.1.2.3-.1.5Zm0,1.1h-.4v-.2h.5v.2Zm-3.2-.8a.2.2,0,0,1,0-.4,1.1,1.1,0,0,1,.8,0c.3.1.3.3,0,.4a1.1,1.1,0,0,1-.8,0Zm-1.4.3v-.2h.4v.2Zm2.3,1.2a2.5,2.5,0,0,1-1.7,0c-.4-.3-.4-.6.1-.9a2,2,0,0,1,1.7.1c.4.2.4.5-.1.8Zm-3.6-.2a2.5,2.5,0,0,1-1.7,0q-.6-.4,0-.9a2,2,0,0,1,1.7.1c.5.2.5.5,0,.8ZM69.3,49a2.1,2.1,0,0,1-1.1,0q-.5-.3,0-.6a1.4,1.4,0,0,1,1.1.1c.3.1.3.3,0,.5Zm-5.5-2h-.4v-.2h.4V47Zm-2.1.6c.1-.2.6-.3,1-.2s.6.2.4.4-.6.3-1,.2-.6-.2-.4-.4Zm-2,0s.2-.1.3,0,.3.1.2.1h-.4c-.1,0-.2-.1-.1-.2Zm6.5,1.9A2.5,2.5,0,0,1,64,50c-.9-.1-1.4-.6-1-1a2.1,2.1,0,0,1,2.1-.5c.9.1,1.4.6,1.1,1Zm-7.8-1.9c0,.1-.3.2-.5.2s-.3-.2-.3-.3a.6.6,0,0,1,.6-.1c.2,0,.3.1.2.2Zm2.3,2a1.7,1.7,0,0,1-1.5.4c-.6-.1-.9-.4-.7-.7a1.7,1.7,0,0,1,1.5-.4c.6.1,1,.5.7.7Zm1.5,1.3a1.1,1.1,0,0,1-1.1,0c-.3-.1-.3-.4,0-.5a2.1,2.1,0,0,1,1.1,0c.3.1.3.4,0,.5Zm-9.3-3.6v-.2h.4v.2Zm1.5,2.5c-1.2-.2-1.8-.8-1.4-1.4s1.7-.9,2.9-.7,1.8.9,1.3,1.4a3.1,3.1,0,0,1-2.8.7Zm-4.3-1.9c.1-.2.6-.3,1-.3s.6.3.4.5-.6.3-1,.2-.6-.3-.4-.4Zm-1.2-.3c0,.1-.2.1-.3.1s-.3-.1-.2-.2.2-.1.4-.1.2.1.1.2Zm7.7,3.8a1.1,1.1,0,0,1-1.1,0c-.3-.1-.3-.3,0-.5a2.1,2.1,0,0,1,1.1,0c.3.2.3.4,0,.5Zm-6.3-1.9c-.4,0-.6-.2-.5-.4a1.5,1.5,0,0,1,1-.3c.4.1.6.3.5.5a1.1,1.1,0,0,1-1,.2Zm2,.9c-.1.2-.4.2-.7.2s-.5-.2-.4-.4a1,1,0,0,1,.8-.1c.3,0,.4.2.3.3Zm-6.1-.9c-.8-.2-1.2-.6-.9-1a2.1,2.1,0,0,1,2-.4c.8.1,1.2.5.9.9a2.4,2.4,0,0,1-2,.5Zm2,.9a1.1,1.1,0,0,1,1-.2c.4,0,.6.2.5.4a1.1,1.1,0,0,1-1,.2c-.4,0-.6-.2-.5-.4ZM42.6,48h-.4l.2-.2h.4l-.2.2Zm10,4a2,2,0,0,1-1.6.3c-.6-.1-.9-.4-.7-.7a1.5,1.5,0,0,1,1.5-.3c.7.1,1,.4.8.7ZM37.9,47.1v.2h-.4v-.2Zm-1.2-.3c-.1,0-.3.1-.4,0h.2a.2.2,0,0,1,.2.2Zm4.4,1.9a2.5,2.5,0,0,1-2.4.6c-1-.2-1.5-.7-1.1-1.2a2.8,2.8,0,0,1,2.4-.5c1,.2,1.5.7,1.1,1.1Zm2,.7v.2h-.4v-.2Zm2.1,1.4a1.5,1.5,0,0,1-1,.3c-.4-.1-.6-.3-.5-.5a1.1,1.1,0,0,1,1-.2c.4,0,.6.3.5.4Zm-4.1.1a1.9,1.9,0,0,1-1.6.3c-.6-.1-.9-.4-.7-.7a1.7,1.7,0,0,1,1.5-.4c.7.1,1,.5.8.8Zm-5.4-1a1.5,1.5,0,0,1-1.5.3c-.7-.1-1-.4-.8-.7a2,2,0,0,1,1.6-.3c.6.1.9.4.7.7Zm-4.1,0c-.2.3-.9.4-1.5.3s-.9-.4-.7-.7a1.7,1.7,0,0,1,1.5-.4c.6.1,1,.5.7.8Zm-6-1.8c-.1-.1.1-.3.4-.3a1,1,0,0,1,.8.1c.1.2-.1.4-.4.4a.7.7,0,0,1-.8-.2Zm-3.1-.9c-.4,0-.8-.1-.9-.3s.1-.4.5-.4.8,0,.9.2-.1.4-.5.5Zm-5.7-2.8c0-.2.4-.3.9-.3s.7.2.6.4-.4.4-.9.4-.7-.3-.6-.5Zm-1.6-1.6c-.2-.4.2-.7.9-.8a1.6,1.6,0,0,1,1.7.4c.2.3-.2.7-.9.8a2.2,2.2,0,0,1-1.7-.4Zm7.6,1.6c.1.2-.1.4-.5.4a1.1,1.1,0,0,1-1-.2c-.1-.2.1-.4.5-.5s.9.1,1,.3ZM27.3,46c.3.4-.2.9-1.1,1a2.5,2.5,0,0,1-2.2-.5c-.3-.4.2-.9,1.1-1a2.5,2.5,0,0,1,2.2.5Zm3.1,2.2a1.7,1.7,0,0,1-1.5.4c-.6-.2-.9-.5-.7-.8s.9-.4,1.5-.3,1,.4.7.7Zm2.1-.3c.4,0,.6.3.5.4a1.5,1.5,0,0,1-1,.3c-.4-.1-.6-.3-.5-.5a1.1,1.1,0,0,1,1-.2ZM32,47c-.1.1-.3.2-.4.1s-.3-.1-.2-.2a.5.5,0,0,1,.4,0Zm2.9.8c.4,0,.5.2.4.3s-.4.3-.8.2-.4-.2-.3-.4a.8.8,0,0,1,.7-.1Zm-3.1-1.9c-.1-.2.1-.4.5-.4a1.1,1.1,0,0,1,1,.2c.1.2-.1.4-.5.5s-.9-.1-1-.3Zm2.7.8c.4.1.6.3.4.5s-.6.3-1,.2-.6-.3-.4-.4.6-.3,1-.3Zm-4.6-.6c.4.1.6.3.5.5a1.1,1.1,0,0,1-1,.2c-.4-.1-.6-.3-.5-.5l1-.2Zm-6.4-3.8c.3.2.3.4-.1.5a.9.9,0,0,1-1,0c-.3-.1-.3-.3,0-.5ZM14.4,38c-.4-.2-.5-.4-.2-.5a.9.9,0,0,1,1-.1c.4.1.5.3.2.5a1.6,1.6,0,0,1-1,.1Zm5.8,2.4c.4,0,.9.1,1,.3s-.1.4-.5.4a1.1,1.1,0,0,1-1-.2c-.1-.2.1-.4.5-.5ZM14,48.2c17.1,8.1,44.7,8.1,61.8,0s17.1-21.4,0-29.6-44.7-8.1-61.8,0S-3,40,14,48.2Z"/>
    </g>
    <path class="o" d="M78.2,34.1c-18.2,9-72,10-77.2-15L0,99.3c0,4.7,3.4,8.5,7.1,11.2h0c6.6,4.5,14.5,6.8,22.3,8.3h0c18,2.7,55.5,2.7,60.5-18.4l.9-80.2C90.7,25.2,86.6,30.2,78.2,34.1Z"/>
    <path class="p" d="M77.1,6c17.8,7.9,18.3,20.8,1.1,28.7s-45.7,7.9-63.5-.1S-3.7,13.8,13.5,5.9,59.2-2,77.1,6ZM17.2,33.5c16.4,7.3,42.6,7.3,58.4,0S90.9,14.4,74.5,7.2,32-.2,16.2,7.1.9,26.2,17.2,33.5"/>
    <path class="q" d="M13.7,114.2a89.4,89.4,0,0,0,28.6,5.7c5.3.2,38,1.3,46.2-15.7a32,32,0,0,0,1.4-3.8c0-2.9,0-7.7.1-10.4.1-7.4.1-13.3.2-17.6V70.1c.1-7.7.2-21.8.6-49.9a134.4,134.4,0,0,1-3.1,22.3C86.1,49.3,81,66.6,73.9,78,57.2,105,20.3,112.9,13.7,114.2Z"/>
  </g>
</svg>
