<svg xmlns="http://www.w3.org/2000/svg" xmlns:xlink="http://www.w3.org/1999/xlink" viewBox="0 0 193.9 83.6">
  <defs>
    <style>
      .a {
        fill: none;
      }

      .b {
        opacity: 0.14;
      }

      .c {
        isolation: isolate;
      }

      .d {
        clip-path: url(#a);
      }

      .e {
        fill: #c32d2a;
      }

      .f {
        fill: #cc0526;
      }

      .g {
        fill: #e5e5e5;
      }

      .h {
        fill: #c21926;
      }

      .i {
        fill: #cd3e47;
      }

      .j {
        fill: #c22926;
      }

      .k {
        fill: #6270ac;
      }

      .l {
        fill: #5665a6;
      }

      .m {
        fill: #5d6ba9;
      }

      .n {
        fill: #6a77b0;
      }

      .o {
        fill: #65c8d0;
      }

      .p {
        fill: #609ba0;
      }

      .q {
        fill: #468b90;
      }

      .r {
        fill: #b5b5b5;
      }

      .s {
        fill: #ca343d;
      }

      .t {
        fill: #dcdcdc;
      }

      .u {
        fill: #f0f0f0;
      }

      .v {
        fill: #eee;
      }
    </style>
    <clipPath id="a">
      <path class="a" d="M18.1,18.5V13.4a.8.8,0,0,0,.1.4v4.7Z"/>
    </clipPath>
  </defs>
  <g>
    <path class="b" d="M24.8,13.6c-1.2,0-5.6-.2-7.2,2.2s-.6,3.6-.3,4.8c1.8,7.5,4.7,15.9,5.9,19.3C17.7,44,1.6,56.4,4.5,64.7c1.6,4.5,8.2,6.5,11.8,6.8L151.1,83.1c3,.6,11.2,1.6,17.7-3.4a16.6,16.6,0,0,0,2.7-2.5l14.1-27.5c2.2-.6,6.6-2,7.9-5.5s.1-4.3-1.3-8.9c-.9-3.1-2.1-7.4-3.4-12.8,2.1-3,2.6-6.3,1.3-8.2a5.6,5.6,0,0,0-2.9-1.9,12.2,12.2,0,0,0-6.1-.4C173.4,13.4,36.5,14,24.8,13.6Z"/>
    <g class="c">
      <g class="c">
        <g class="d">
          <g class="c">
            <path class="e" d="M18.1,18.5V13.4a.8.8,0,0,0,.1.4v4.7"/>
          </g>
        </g>
      </g>
      <path class="f" d="M185.3,39a.1.1,0,0,0-.1.1.3.3,0,0,1-.1.2c0,.1,0,.1-.1.1s-.1.2-.2.3h-.1l-.3.3h-.1l-.4.3h-.1l-.5.3h-.1l-.6.2h-.3l-.5.2h-1.9l-1.5.3H178l-1.5.2h-3.9v5.2h2.2l1.7-.2h1.8l1.6-.2h.2l.8-.2h1.4c0-.1.1-.1.2-.1h.1l.5-.2h.5a.1.1,0,0,1,.1-.1.1.1,0,0,0,.1-.1h.2l.3-.2h0l.3-.2a.1.1,0,0,1,.1-.1h.1l.2-.2h0a.1.1,0,0,0,.1-.1.1.1,0,0,1,.1-.1h0c0-.1.1-.2.1-.3h0V39Z"/>
      <polygon class="f" points="18.1 18.9 18.2 13.8 29.4 41 29.3 46.2 18.1 18.9"/>
      <path class="g" d="M171.6,39.7,44,42c-2.5,0-4.8-.5-5.1-1.1L27.8,13.6c-.3-.6,1.5-1.2,4-1.2l127.7-2.3c2.5,0,4.7.5,5,1.1l11.2,27.3C175.9,39.1,174.1,39.7,171.6,39.7Z"/>
      <polygon class="h" points="44.9 49.6 45 44.4 172.6 42.2 172.6 47.4 44.9 49.6"/>
      <path class="i" d="M172.6,42.2,45,44.4c-7.8.2-14.8-1.4-15.6-3.4L18.2,13.8c-.8-2,4.8-3.8,12.6-3.9L158.5,7.7c7.7-.2,14.7,1.3,15.6,3.4l11.1,27.2C186.1,40.3,180.4,42.1,172.6,42.2Zm-8.1-31c-.3-.6-2.5-1.1-5-1.1L31.8,12.4c-2.5,0-4.3.6-4,1.2L38.9,40.9c.3.6,2.6,1.1,5.1,1.1l127.6-2.3c2.5,0,4.3-.6,4.1-1.2L164.5,11.2"/>
      <path class="j" d="M43.6,44.4H36.9c0-.1-.1-.1-.2-.1H35.6l-.9-.2h-.4l-.6-.2h-.6l-.4-.2h-.2l-.6-.2h-.2l-.5-.2H31l-.5-.3a.1.1,0,0,1-.1-.1l-.4-.2h-.1l-.2-.2h-.1a.8.8,0,0,1-.2-.4v5.2c.1.1.2.2.2.3h.1l.3.3H30l.3.2h.1l.6.3h.1l.5.3h.3l.5.2h.7l.6.2h1l.8.2h9.4V44.4Z"/>
    </g>
    <g>
      <g class="c">
        <path class="k" d="M19.8,38.5H18.4l-.9-.2H16.2l-.6-.2H14l-.6-.2H12.3l-.4-.2h-.3l-.3-.2h-.2l-.3-.2h-.2l-.2-.2h-.2a.3.3,0,0,0-.1-.2H10l-.2-.3h0c0-.1-.1-.2-.1-.3v4.9a.6.6,0,0,0,.1.4h0c.1,0,.1.1.1.2h.2a.3.3,0,0,0,.1.2h.2a.2.2,0,0,0,.2.2l.2.2h.3c0,.1.1.1.2.2h.6l.4.2h8.6V38.6Z"/>
        <polygon class="l" points="158 46.9 158 42 176.5 14.8 176.4 19.8 158 46.9"/>
        <path class="m" d="M143.8,42.4,22.6,36.1c-2.4-.1-4-.8-3.6-1.4L37.5,7.6c.4-.7,2.7-1.1,5.1-1L163.9,13c2.3.1,3.9.7,3.5,1.4L148.9,41.5C148.5,42.1,146.2,42.6,143.8,42.4Z"/>
        <polygon class="n" points="20.9 43.5 20.9 38.6 142.2 44.9 142.1 49.8 20.9 43.5"/>
        <path class="m" d="M142.2,44.9,20.9,38.6c-7.4-.4-12.3-2.4-10.9-4.4L28.4,7.1c1.4-2,8.5-3.3,15.9-2.9l121.2,6.3c7.4.4,12.3,2.3,11,4.3L158,42C156.7,44,149.5,45.3,142.2,44.9Zm25.2-30.5c.4-.7-1.2-1.3-3.5-1.4L42.6,6.6c-2.4-.1-4.7.3-5.1,1L19,34.7c-.4.6,1.2,1.3,3.6,1.4l121.2,6.3c2.4.2,4.7-.3,5.1-.9l18.5-27.1"/>
        <path class="n" d="M157.7,42.3h0l-.4.3h-.1l-.5.3h0l-.6.3h-.2l-.5.2h-1.5l-.8.2H142.2v4.9h11l.8-.2h.3l.4-.2h1.6l.4-.2h0a.1.1,0,0,0,.1-.1h.5c0-.1,0-.1.1-.1h0l.3-.2h.2c0-.1.1-.1.2-.2h0V42Z"/>
      </g>
      <g class="c">
        <g>
          <path class="o" d="M46.4,5h0Z"/>
          <path class="p" d="M48.7,4.2v.2h-.1V4.1c.1-1.9-.3-3.5-1-3.5S46.3,2,46.2,3.9V5.2h-1V4.1C45.3,2,45.9,0,47.1,0h0C48.3.1,48.8,2.2,48.7,4.2Z"/>
          <path d="M45.2,5h0Z"/>
          <path d="M46.4,5h0Z"/>
          <path class="q" d="M48.6,4.1v.3H47.5a5.5,5.5,0,0,0-.4-3c-.3.2-.7,1.2-.8,2.9V5h0a.1.1,0,0,1-.1.1V3.9C46.3,2,47,.5,47.6.6S48.7,2.2,48.6,4.1Z"/>
        </g>
      </g>
      <g class="c">
        <g>
          <path class="o" d="M51.9,5.3c0,.1,0,.1-.1.1h.1Z"/>
          <path class="p" d="M54.1,4.5v.2h0V4.4c.1-1.9-.3-3.5-1-3.5s-1.3,1.4-1.4,3.3V5.4h-1a1.4,1.4,0,0,1,0-.9c0-2.1.7-4.1,1.8-4.1h.1C53.8.4,54.2,2.5,54.1,4.5Z"/>
          <path d="M50.7,5.3h0c-.1,0-.2,0-.2-.1Z"/>
          <path d="M51.9,5.3c0,.1,0,.1-.1.1h.1Z"/>
          <path class="q" d="M54.1,4.4v.3H53a5.1,5.1,0,0,0-.5-3,5.9,5.9,0,0,0-.7,2.9v.9h-.1V4.2c.1-1.9.7-3.4,1.4-3.3S54.2,2.5,54.1,4.4Z"/>
        </g>
      </g>
      <g class="c">
        <g>
          <path class="o" d="M57.4,5.6c0,.1-.1.1-.2.1h.2Z"/>
          <path class="p" d="M59.6,4.8V5h-.1a.4.4,0,0,0,.1-.3c.1-1.9-.4-3.5-1-3.5s-1.3,1.4-1.4,3.3a1.7,1.7,0,0,0,0,1v.2H56.1V4.7c.1-2.1.7-4.1,1.9-4.1h0C59.3.7,59.7,2.8,59.6,4.8Z"/>
          <path d="M56.1,5.6h0a.1.1,0,0,1-.1-.1Z"/>
          <path d="M57.4,5.6c0,.1-.1.1-.2.1h.2Z"/>
          <path class="q" d="M59.6,4.7a.4.4,0,0,1-.1.3h-1a5.1,5.1,0,0,0-.5-3,5.4,5.4,0,0,0-.8,2.9v.9h0V5.5a1.7,1.7,0,0,1,0-1c.1-1.9.7-3.4,1.4-3.3S59.7,2.8,59.6,4.7Z"/>
        </g>
      </g>
      <g class="c">
        <g>
          <path class="o" d="M62.8,5.9h0Z"/>
          <path class="p" d="M65.1,5.1v.2H65V5c.1-1.9-.3-3.5-1-3.5s-1.3,1.4-1.4,3.3V6h-1V5c.1-2.1.7-4.1,1.9-4.1h0C64.7.9,65.2,3.1,65.1,5.1Z"/>
          <path d="M61.6,5.9h0Z"/>
          <path d="M62.8,5.9h0Z"/>
          <path class="q" d="M65,5v.3H63.9a5.5,5.5,0,0,0-.4-3c-.3.2-.7,1.2-.8,2.9v.9h-.1V4.8c.1-1.9.8-3.4,1.4-3.3S65.1,3.1,65,5Z"/>
        </g>
      </g>
      <g class="c">
        <g>
          <path class="o" d="M68.3,6.2h-.1V6.1Z"/>
          <path class="p" d="M70.5,5.4v.2h0V5.3c.1-1.9-.3-3.5-1-3.5s-1.3,1.4-1.4,3.3V6.3h-1V6.1a1.1,1.1,0,0,1,0-.8c0-2.1.7-4.1,1.8-4.1H69C70.2,1.2,70.6,3.4,70.5,5.4Z"/>
          <path d="M67.1,6.1v.2h0Z"/>
          <path d="M68.3,6.2h-.1V6.1Z"/>
          <path class="q" d="M70.5,5.3v.3H69.4a5.1,5.1,0,0,0-.5-3,5.9,5.9,0,0,0-.7,2.9v1h-.1V5.1c.1-1.9.7-3.4,1.4-3.3S70.6,3.4,70.5,5.3Z"/>
        </g>
      </g>
      <g class="c">
        <g>
          <path class="o" d="M73.8,6.5h-.1V6.4Z"/>
          <path class="p" d="M76,5.7v.2h-.1a.4.4,0,0,0,.1-.3c.1-1.9-.4-3.5-1-3.5s-1.3,1.4-1.4,3.3a1.7,1.7,0,0,0,0,1v.2H72.5v-1c.1-2.1.7-4.1,1.9-4.1h.1C75.7,1.5,76.1,3.7,76,5.7Z"/>
          <path d="M72.5,6.4v.2h0Z"/>
          <path d="M73.8,6.5h-.1V6.4Z"/>
          <path class="q" d="M76,5.6a.4.4,0,0,1-.1.3h-1a5.1,5.1,0,0,0-.5-3,4.9,4.9,0,0,0-.7,2.9,1.1,1.1,0,0,0,0,.8v.2h-.1V6.4a1.7,1.7,0,0,1,0-1c.1-1.9.7-3.4,1.4-3.3S76.1,3.7,76,5.6Z"/>
        </g>
      </g>
      <g class="c">
        <g>
          <path class="o" d="M79.2,6.8c0,.1,0,.1-.1.1V6.7Z"/>
          <path class="p" d="M81.5,6v.2h-.1V5.8c.1-1.8-.3-3.4-1-3.5S79.1,3.8,79,5.7V6.9H78v-1c.1-2.1.7-4.1,1.9-4.1h0C81.1,1.8,81.6,4,81.5,6Z"/>
          <path d="M78,6.7v.2c-.1,0-.1,0-.1-.1Z"/>
          <path d="M79.2,6.8c0,.1,0,.1-.1.1V6.7Z"/>
          <path class="q" d="M81.4,5.8v.4H80.3a5.5,5.5,0,0,0-.4-3c-.3.2-.7,1.2-.8,2.9v1H79V5.7c.1-1.9.8-3.4,1.4-3.4S81.5,4,81.4,5.8Z"/>
        </g>
      </g>
      <g class="c">
        <g>
          <path class="o" d="M84.7,7.1c0,.1,0,.1-.1.1V7Z"/>
          <path class="p" d="M86.9,6.3v.2h0V6.1c.1-1.8-.3-3.4-1-3.5S84.6,4.1,84.5,6V7.2h-1V7a1.1,1.1,0,0,1,0-.8c0-2.1.7-4.1,1.8-4.1h.1C86.6,2.1,87,4.2,86.9,6.3Z"/>
          <path d="M83.5,7v.2c-.1,0-.2,0-.2-.1Z"/>
          <path d="M84.7,7.1c0,.1,0,.1-.1.1V7Z"/>
          <path class="q" d="M86.9,6.1v.4H85.8c.1-1.7-.2-2.8-.5-3a5.9,5.9,0,0,0-.7,2.9v1h-.1V6c.1-1.9.7-3.4,1.4-3.4S87,4.3,86.9,6.1Z"/>
        </g>
      </g>
      <g class="c">
        <g>
          <path class="o" d="M90.2,7.4h-.1V7.3A.1.1,0,0,0,90.2,7.4Z"/>
          <path class="p" d="M92.4,6.6h-.1a.4.4,0,0,0,.1-.3c.1-1.8-.4-3.4-1-3.5S90.1,4.4,90,6.3V7.5H88.9v-1c.1-2.1.7-4.1,1.9-4.1h.1C92.1,2.4,92.5,4.5,92.4,6.6Z"/>
          <path d="M88.9,7.3v.2h-.1A.1.1,0,0,0,88.9,7.3Z"/>
          <path d="M90.2,7.4h-.1V7.3A.1.1,0,0,0,90.2,7.4Z"/>
          <path class="q" d="M92.4,6.4a.4.4,0,0,1-.1.3h-1a5.5,5.5,0,0,0-.5-3.1,5.7,5.7,0,0,0-.7,3,1.1,1.1,0,0,0,0,.8v.2H90V6.3c.1-1.9.7-3.4,1.4-3.4S92.5,4.6,92.4,6.4Z"/>
        </g>
      </g>
      <g class="c">
        <g>
          <path class="o" d="M95.6,7.7h-.1V7.6A.1.1,0,0,1,95.6,7.7Z"/>
          <path class="p" d="M97.9,6.9h-.1V6.7c.1-1.9-.3-3.4-1-3.5s-1.3,1.5-1.4,3.4V7.8h-1v-1c.1-2.1.7-4.1,1.9-4.1h0C97.5,2.7,98,4.8,97.9,6.9Z"/>
          <path d="M94.4,7.6v.2h-.1A.1.1,0,0,1,94.4,7.6Z"/>
          <path d="M95.6,7.7h-.1V7.6A.1.1,0,0,1,95.6,7.7Z"/>
          <path class="q" d="M97.8,6.7V7h-1a6.7,6.7,0,0,0-.5-3.1,5.4,5.4,0,0,0-.8,3v1h-.1V6.6c.1-1.9.8-3.4,1.4-3.4S97.9,4.8,97.8,6.7Z"/>
        </g>
      </g>
      <g class="c">
        <g>
          <path class="o" d="M101.1,8H101V7.9Z"/>
          <path class="p" d="M103.3,7.2h0V7c.1-1.9-.3-3.4-1-3.5S101,5,100.9,6.9V8.1h-1V7.9a1.1,1.1,0,0,1,0-.8c.1-2.1.7-4.1,1.8-4.1h.1C103,3,103.4,5.1,103.3,7.2Z"/>
          <path d="M99.9,7.9v.2h0Z"/>
          <path d="M101.1,8H101V7.9Z"/>
          <path class="q" d="M103.3,7v.3h-1.1c.1-1.8-.2-2.8-.5-3.1a6.9,6.9,0,0,0-.7,3v1h-.1V6.9c.1-1.9.7-3.4,1.4-3.4S103.4,5.1,103.3,7Z"/>
        </g>
      </g>
      <g class="c">
        <g>
          <path class="o" d="M106.6,8.3h-.1V8.2Z"/>
          <path class="p" d="M108.8,7.5h-.1a.4.4,0,0,0,.1-.3c.1-1.9-.4-3.4-1-3.5s-1.3,1.5-1.4,3.4V8.4h-1.1V7.3c.1-2,.7-4,1.9-4h.1C108.5,3.3,108.9,5.4,108.8,7.5Z"/>
          <path d="M105.3,8.2v.2h0Z"/>
          <path d="M106.6,8.3h-.1V8.2Z"/>
          <path class="q" d="M108.8,7.3a.4.4,0,0,1-.1.3h-1a5.5,5.5,0,0,0-.5-3.1,5.7,5.7,0,0,0-.7,3,1.1,1.1,0,0,0,0,.8v.2h-.1V7.2c.1-1.9.7-3.4,1.4-3.4S108.9,5.4,108.8,7.3Z"/>
        </g>
      </g>
      <g class="c">
        <g>
          <path class="o" d="M112,8.6h-.1V8.5Z"/>
          <path class="p" d="M114.3,7.8h-.1V7.6c.1-1.9-.3-3.4-1-3.5s-1.3,1.5-1.4,3.4V8.7h-1V7.6c.1-2,.7-4,1.9-4h0C113.9,3.6,114.4,5.7,114.3,7.8Z"/>
          <path d="M110.8,8.5v.2h0Z"/>
          <path d="M112,8.6h-.1V8.5Z"/>
          <path class="q" d="M114.2,7.6v.3h-1.1V7.7a6.5,6.5,0,0,0-.5-3,5.4,5.4,0,0,0-.8,3v1h-.1V7.5c.1-1.9.8-3.4,1.4-3.4S114.3,5.7,114.2,7.6Z"/>
        </g>
      </g>
      <g class="c">
        <g>
          <path class="o" d="M117.5,8.9h-.1V8.8Z"/>
          <path class="p" d="M119.8,8.1h-.1V7.9c.1-1.9-.3-3.4-1-3.5s-1.3,1.5-1.4,3.4V9h-1V7.9c.1-2,.7-4.1,1.8-4.1a.1.1,0,0,1,.1.1C119.4,3.9,119.8,6,119.8,8.1Z"/>
          <path d="M116.3,8.8V9h0Z"/>
          <path d="M117.5,8.9h-.1V8.8Z"/>
          <path class="q" d="M119.7,7.9v.3h-1.1V8c.1-1.7-.2-2.7-.5-3a6.9,6.9,0,0,0-.7,3V9h-.1V7.8c.1-1.9.7-3.4,1.4-3.4S119.8,6,119.7,7.9Z"/>
        </g>
      </g>
      <g class="c">
        <g>
          <path class="o" d="M123,9.2h-.1V9.1Z"/>
          <path class="p" d="M125.2,8.4h-.1a.4.4,0,0,0,.1-.3c.1-1.9-.4-3.4-1-3.5s-1.3,1.5-1.4,3.4V9.3h-1.1V8.2c.1-2,.7-4.1,1.9-4.1a.1.1,0,0,0,.1.1C124.9,4.2,125.3,6.3,125.2,8.4Z"/>
          <path d="M121.7,9.1v.2h0Z"/>
          <path d="M123,9.2h-.1V9.1Z"/>
          <path class="q" d="M125.2,8.2a.4.4,0,0,1-.1.3h-1V8.3a5.4,5.4,0,0,0-.5-3,5.7,5.7,0,0,0-.7,3,1.1,1.1,0,0,0,0,.8v.2h-.1V8.1c.1-1.9.7-3.4,1.4-3.4S125.3,6.3,125.2,8.2Z"/>
        </g>
      </g>
      <g class="c">
        <g>
          <path class="o" d="M128.4,9.5h-.1V9.4Z"/>
          <path class="p" d="M130.7,8.7h-.1V8.5c.1-1.9-.3-3.4-1-3.5s-1.3,1.5-1.4,3.4V9.6h-1V8.5c.1-2,.7-4.1,1.9-4.1h0C130.3,4.5,130.8,6.6,130.7,8.7Z"/>
          <path d="M127.2,9.4v.2h0Z"/>
          <path d="M128.4,9.5h-.1V9.4Z"/>
          <path class="q" d="M130.6,8.5v.3h-1.1V8.6a6.5,6.5,0,0,0-.5-3,5.4,5.4,0,0,0-.8,3v1h-.1V8.4c.1-1.9.8-3.4,1.4-3.4S130.7,6.6,130.6,8.5Z"/>
        </g>
      </g>
      <g class="c">
        <g>
          <path class="o" d="M133.9,9.8h-.1V9.7A.1.1,0,0,1,133.9,9.8Z"/>
          <path class="p" d="M136.2,9h-.1V8.8c.1-1.9-.3-3.5-1-3.5s-1.3,1.5-1.4,3.4V9.9h-1V8.8c.1-2,.7-4.1,1.9-4.1h0C135.8,4.8,136.2,6.9,136.2,9Z"/>
          <path d="M132.7,9.7v.2h-.1A.1.1,0,0,1,132.7,9.7Z"/>
          <path d="M133.9,9.8h-.1V9.7A.1.1,0,0,1,133.9,9.8Z"/>
          <path class="q" d="M136.1,8.8v.3H135V8.9c.1-1.7-.2-2.7-.5-3a6.9,6.9,0,0,0-.7,3v1h-.1V8.7c.1-1.9.7-3.4,1.4-3.4S136.2,6.9,136.1,8.8Z"/>
        </g>
      </g>
      <g class="c">
        <g>
          <path class="o" d="M139.4,10.1h-.1V10Z"/>
          <path class="p" d="M141.6,9.3h-.1a.4.4,0,0,0,.1-.3c.1-1.9-.4-3.5-1-3.5s-1.3,1.5-1.4,3.4v1.2h-1.1V9.1c.1-2,.7-4.1,1.9-4.1h.1C141.3,5.1,141.7,7.2,141.6,9.3Z"/>
          <path d="M138.1,10v.2h0Z"/>
          <path d="M139.4,10.1h-.1V10Z"/>
          <path class="q" d="M141.6,9.1a.4.4,0,0,1-.1.3h-1V9.2a5.4,5.4,0,0,0-.5-3,5.7,5.7,0,0,0-.7,3v1h-.1V9c.1-1.9.7-3.4,1.4-3.4S141.7,7.2,141.6,9.1Z"/>
        </g>
      </g>
      <g class="c">
        <g>
          <path class="o" d="M144.9,10.4h-.2v-.2Z"/>
          <path class="p" d="M147.1,9.6H147V9.4c.1-1.9-.3-3.5-1-3.5s-1.3,1.5-1.4,3.4v1.2h-1V9.4c.1-2,.7-4.1,1.9-4.1h0C146.7,5.4,147.2,7.5,147.1,9.6Z"/>
          <path d="M143.6,10.3v.2h0Z"/>
          <path d="M144.9,10.4h-.2v-.2Z"/>
          <path class="q" d="M147,9.4v.3h-1.1V9.5a6.5,6.5,0,0,0-.5-3,6,6,0,0,0-.8,3v1h-.1V9.3c.1-1.9.8-3.4,1.4-3.4S147.1,7.5,147,9.4Z"/>
        </g>
      </g>
      <g class="c">
        <g>
          <path class="o" d="M150.3,10.7h-.1v-.2Z"/>
          <path class="p" d="M152.6,9.9h-.1V9.7c.1-1.9-.3-3.5-1-3.5s-1.3,1.5-1.4,3.4v1.2h-1V9.7c.1-2,.7-4.1,1.9-4.1h0C152.2,5.7,152.6,7.8,152.6,9.9Z"/>
          <path d="M149.1,10.6v.2h0Z"/>
          <path d="M150.3,10.7h-.1v-.2Z"/>
          <path class="q" d="M152.5,9.7V10h-1.1V9.8c.1-1.7-.2-2.7-.5-3a6,6,0,0,0-.7,3v1h-.1V9.6c.1-1.9.7-3.4,1.4-3.4S152.6,7.8,152.5,9.7Z"/>
        </g>
      </g>
      <g class="c">
        <g>
          <path class="o" d="M155.8,11h0Z"/>
          <path class="p" d="M158,10.2h0V10c.1-1.9-.4-3.5-1-3.5s-1.3,1.5-1.4,3.4v1.2h-1.1V10c.1-2,.8-4.1,1.9-4.1h.1C157.7,6,158.1,8.1,158,10.2Z"/>
          <path d="M154.5,10.9h0Z"/>
          <path d="M155.8,11h0Z"/>
          <path class="q" d="M158,10v.3h-1.1a5.4,5.4,0,0,0-.5-3,5,5,0,0,0-.7,3v.8h-.1V9.9c.1-1.9.7-3.4,1.4-3.4S158.1,8.1,158,10Z"/>
        </g>
      </g>
    </g>
    <g>
      <g>
        <path class="j" d="M7.7,67c-4-.2-6.6-1.8-7.3-3.9a3.2,3.2,0,0,1-.2-1.4L0,64.6c-.2,2.7,2.7,5,7.5,5.3l6.4.5V67.5Z"/>
        <polygon class="r" points="134.9 76.3 134.9 79.3 13.9 70.4 13.9 67.5 134.9 76.3"/>
        <path class="j" d="M166.9,23.5,155.5,73.3c-1,4-7.2,7-13.9,6.5l-6.7-.5v-3l6.8.5c6.7.5,12.9-2.5,13.8-6.6l11.2-48.7A2.7,2.7,0,0,1,166.9,23.5Z"/>
      </g>
      <path class="s" d="M166.9,20.5l-.2,1L155.5,70.2c-.9,4.1-7.1,7.1-13.8,6.6l-6.8-.5,13.5-48.4L13.9,67.5,7.7,67c-4-.2-6.6-1.8-7.3-3.9a3.2,3.2,0,0,1-.2-1.4,6.5,6.5,0,0,1,.9-2.4L31.3,13c1.8-2.9,7.5-4.9,12.8-4.6L158,14.5C163.6,14.8,167.6,17.5,166.9,20.5Z"/>
      <polygon class="t" points="152.3 14.2 49.4 8.7 13.9 67.5 148.4 27.9 152.3 14.2"/>
      <polygon class="u" points="148.4 27.9 134.9 76.3 13.9 67.5 148.4 27.9"/>
      <polygon class="v" points="134.9 76.3 13.9 67.5 13.9 67.5 134.9 76.3"/>
      <path class="s" d="M166.8,19.6a1.8,1.8,0,0,1-.2,1c-.5,1.3-2,2.6-4.8,3.4L84.5,46.7,33,16.7a4.2,4.2,0,0,1-1.5-1.5,1.7,1.7,0,0,1-.3-1h0c.1-2.8,5.7-5.9,11.9-5.6l115.8,6.3C164,15.1,166.9,17.3,166.8,19.6Z"/>
      <polygon class="u" points="43.4 8.2 89.9 33.3 158 14.4 43.4 8.2"/>
      <line class="a" y1="64.8" y2="64.6"/>
      <line class="a" x1="0.2" y1="61.7" x2="0.2" y2="61.5"/>
      <path class="j" d="M166.8,19.6v1.9h0c.1,1.7-1.5,3.5-5,4.5L84.5,48.7,33,18.7q-2-1.2-1.8-2.7h0V14.2a1.7,1.7,0,0,0,.3,1A4.2,4.2,0,0,0,33,16.7l51.5,30L161.8,24c2.8-.8,4.3-2.1,4.8-3.4A1.8,1.8,0,0,0,166.8,19.6Z"/>
      <line class="a" x1="31.2" y1="16.2" x2="31.2" y2="16"/>
    </g>
  </g>
</svg>
