<svg xmlns="http://www.w3.org/2000/svg" viewBox="0 0 530.2 523.5">
  <defs>
    <style>
      .a {
        fill: #2b1c39;
      }

      .b {
        fill: #546e6f;
      }

      .c {
        fill: #211928;
      }

      .d {
        opacity: 0.7;
      }

      .e, .o {
        fill: #3b2c4d;
      }

      .f {
        fill: #9ac6c9;
      }

      .g {
        opacity: 0.36;
      }

      .h, .q, .r {
        fill: #fff;
      }

      .h {
        opacity: 0.1;
      }

      .i {
        opacity: 0.22;
      }

      .j {
        fill: #120e16;
      }

      .k {
        fill: #fbd4ab;
      }

      .l {
        fill: #f8c8a3;
      }

      .m {
        fill: none;
        stroke: #8d5548;
        stroke-miterlimit: 10;
        stroke-width: 2px;
      }

      .n {
        fill: #8d5548;
      }

      .o {
        opacity: 0.55;
      }

      .p {
        fill: #d9e9e6;
      }

      .r {
        opacity: 0.12;
      }

      .s {
        opacity: 0.44;
      }

      .t {
        opacity: 0.14;
      }
    </style>
  </defs>
  <g>
    <g>
      <path class="a" d="M323.3,454.3c-15.6-4.3-22.2-2.6-30.1-5.9s-18.3-12.4-24.6-38.7l-16.1,2.1c2.4,19.9,4.9,39.8,7.3,59.7-39.6,7.7-54.4,11.3-58.6,13.2-.9.4-7.3,3.3-11,2.1a14,14,0,0,0-3.9-.7c-1.5-.1-2.7-.1-3.1.5s1.5,3.2,2,3.8c8.3,8.9,33.2,11.5,33.2,11.5a263.4,263.4,0,0,0,33.3,2.5c11.8,0,23.4-.8,32.4-1.4l9.3-.7,6.3-.9a42.9,42.9,0,0,1,3.2-15.2c1.9-4.8,3.9-9.3,8.5-11.1a11.7,11.7,0,0,1,8.8.6c7.3,3.1,8.7,12,8.9,14.1a21.6,21.6,0,0,1-.9,8.7c2.9.2,4.7.3,7.1-1,5.3-2.6,11-10.4,10.9-34A114.5,114.5,0,0,0,323.3,454.3Z"/>
      <path class="b" d="M329.1,489.8c-.2-2.1-1.6-11-8.9-14.1a11.7,11.7,0,0,0-8.8-.6c-4.6,1.8-6.6,6.3-8.5,11.1a42.9,42.9,0,0,0-3.2,15.2c4.8-.7,8.1-1.5,12-2.1a59.6,59.6,0,0,1,16.5-.8A21.6,21.6,0,0,0,329.1,489.8Z"/>
    </g>
    <path class="c" d="M243.3,374a28.4,28.4,0,0,0-10.7,9.9c-5.9,9.5-3.8,20.1-2.3,27.5s3.6,10,13.5,34.9c1.4,3.4,2.5,6.2,3.2,8.2-4.3.9-10.3,2.3-17.5,4.4-12.2,3.6-18.4,5.5-23.8,9.6-3.6,2.7-9.3,8-13.3,18.1a60.9,60.9,0,0,0,12.2,8.6c6.6,3.6,13.4,5.7,22.6,7.1,20.4,3.3,41.3,1.9,50.7,1.1a12.4,12.4,0,0,0,6.8-2.6,13.2,13.2,0,0,0,4.8-8.8c.8-6.5-3.9-11.6-7.5-16.2,0,0-12.3-16-17.4-36.8a64.1,64.1,0,0,1-.7-25.2,63.7,63.7,0,0,0-8.3-24.5A65.6,65.6,0,0,0,243.3,374Z"/>
    <path class="d" d="M243.3,374a31.9,31.9,0,0,0-5.2,3.6,15.2,15.2,0,0,0-2.2,2.1l3.5,2.6c15.2,12.7,16.9,26.9,24.7,42.6,4.3,8.7,15.4,30.9,35.6,36.7,10.9,3.2,21.2.5,27.6-1.9C281.7,408.3,246.5,372.4,243.3,374Z"/>
    <path d="M141.2,166.6c-2.5.3-4.9.8-7.2,1.3h0a38.5,38.5,0,0,0,23.4,23.5l2.8-25.7A97.1,97.1,0,0,0,141.2,166.6Z"/>
    <path class="c" d="M146.3,140.5A101.4,101.4,0,0,0,134,167.9c2.3-.5,4.7-1,7.2-1.3a97.1,97.1,0,0,1,19-.8l5.1-47.3A103.4,103.4,0,0,0,146.3,140.5Z"/>
    <path class="e" d="M194.2,269.3l-29.5,25.4a109.5,109.5,0,0,0-19.7-5.2,103.9,103.9,0,0,0-50.5,4.2,94.9,94.9,0,0,0-22.1,11.2h0a89.5,89.5,0,0,1-2.9-26.7c.3-7.6.5-12,2.4-15.8,8-15.9,41-14.4,52.8-13.8,13.4.6,35.1,3.5,60.5,16Z"/>
    <path class="d" d="M134,168a48.2,48.2,0,0,0,10.1-11.5,56.6,56.6,0,0,0,5.5-11.9,189.4,189.4,0,0,1,10-21.4c1,1.7,7.9,13.2,3.3,26.8a31.5,31.5,0,0,1-12.1,15.7l-6.7.5A83.8,83.8,0,0,0,134,168Z"/>
    <path class="f" d="M68.6,262.2a126.8,126.8,0,0,1,19.6-2.7,33.7,33.7,0,0,1,14.6,1.9c3.5,1.4,5,2.7,5.7,4.3s-.1,5.9-.5,6.9c-1.6,3.4-5.4,7.4-18.6,10.8a105.4,105.4,0,0,1-30.7,3.2Z"/>
    <path class="f" d="M163.3,287.2c-5.4-1.8-9.8-3.1-12.6-3.9-10.9-3.1-15.4-3.8-20.1-8s-4.5-6.4-4.6-7.4a10.1,10.1,0,0,1,2.4-7.4c5.5-5.8,20.3-2.3,29.6,4.4a34.5,34.5,0,0,1,7.2,6.8Z"/>
    <path class="g" d="M65.5,283.7a29.5,29.5,0,0,1,7.7-10.4c5.1-4.5,10.6-6.2,15.3-7.3,19.7-4.5,39.5-1.6,39.5-1.6a294.3,294.3,0,0,1,58.9,14.8l14.3-10.5A154.4,154.4,0,0,0,150,246.1c-10.8-2.5-64.5-15.1-80.9,9.7C66.2,260.2,62.5,268.6,65.5,283.7Z"/>
    <path class="c" d="M193.6,249l-8.4,15.5c-25.4-12.5-47.1-15.4-60.5-16-11.8-.6-44.8-2.1-52.8,13.8-1.9,3.8-2.1,8.2-2.4,15.8a89.5,89.5,0,0,0,2.9,26.7h0c.8,4,1.7,9.3,2.6,15.7,2.5,16.4,3.7,24.6,3.3,31.4a71.8,71.8,0,0,1-12,34.8A51.9,51.9,0,0,1,46.6,403c-1.6.7-3.6,1.5-5.5.7-5.5-2.4-3.7-16.3-3.6-17.1a201.9,201.9,0,0,1-21.2-34.1c-5.2-10.8-11.4-24-14.3-42.3-2-13.1-3.8-25,1.3-39.2a60.5,60.5,0,0,1,19.6-27.1c6.9-5.4,16.2-10.1,36-13,13.5-2,35.2-3.7,73.2,2.8A427.6,427.6,0,0,1,193.6,249Z"/>
    <path class="h" d="M7.7,312.6A82.9,82.9,0,0,1,7.1,289c.2-1.1,2.1-15.7,5.2-15.7.7-.1,1.9.7,4.6,9.7,3.1,10.5,3.8,17.5,5.6,27.9s2,8.7,3.5,17.7c2.2,12.9,3.6,21.4,1.3,22.3s-8.2-7.1-9.4-8.8C10.8,331.6,9,321.1,7.7,312.6Z"/>
    <path class="c" d="M327.2,456.5c-3.4,4.5-11.4,5.2-13.1,5.3-21.4,1.7-39.4-26.1-45.5-35.5-7.8-12-6.6-14.7-18.6-36.1-6.3-11.3-12.1-20.3-16-26.2a59.4,59.4,0,0,1-33.5-3.3c-5.6-2.3-21.9-10.1-29.2-27-3-6.9.1-5.4-3.9-24.5-3.2-15.3-5.1-24-11.7-32.8-3.4-4.3-7-7.5-6.3-8.5s11.7,4.7,14.8,6.5c10.1,5.8,32.2,20.2,83.8,61.3C324.4,419.4,334.2,447.3,327.2,456.5Z"/>
    <path class="e" d="M319.4,451.3a88.2,88.2,0,0,1-33.7-23.1c-6.5-7.3-9.7-13.6-16.2-26.1-8.8-16.9-10.8-25.4-22.9-49.5-3.5-7-6.8-13.3-13.6-19.2-5.3-4.5-7.6-4.2-18.4-9.9-8.4-4.4-19.3-10.2-29.5-19.9-8.1-7.8-5.9-8.7-15.1-17.5-11.8-11.5-21.8-16.1-20.8-18.5s3.1-1.4,12.3.1c18.8,3,28,6.5,28,6.5,32.9,12.6,48.8,9.5,74.7,24,8,4.5,28.8,17.4,43.5,39.5C338.8,384.1,322.7,440.4,319.4,451.3Z"/>
    <path class="f" d="M264.8,368c-1.3-3.4-2-7.4-3.5-15.3-.7-3.8-1.7-10.3.6-15.4a6.9,6.9,0,0,1,2.1-2.6c2.6-2,6.1-1.1,7.5-.8,6,1.4,9.6,6.4,11.4,8.9,3.8,5.4,4.9,10.3,6.3,17.5,2.4,11.5,4.3,20.8-.9,25.7a9.6,9.6,0,0,1-5.7,2.6C273,389,266,371,264.8,368Z"/>
    <path class="f" d="M237.6,321.3c9,2.2,12.8,2.7,16.1,2.7,6.2.2,8.7-.8,10.2-2.4a6.2,6.2,0,0,0,1.7-4c-.1-2.5-2.2-4.8-7.3-7.6s-15.2-8.6-28.1-7.1c-1.2.1-14.6,1.7-15.1,6.1s7.8,7.4,10.6,8.7S231.6,319.8,237.6,321.3Z"/>
    <path class="i" d="M257.6,313c3.5.5,9.6,1.9,14,6.8s4.5,8.6,5.5,13.7,4.4,20.2,5.2,27.5c1.8,15.7,5,27.4,8.5,40.3,4.3,16.2,7.4,27.3,15.4,39.9a104,104,0,0,0,16.7,19.9l1.6-.6,2.5-1.1c4.6-2.3-20.9-54.1-20.9-54.1-10.2-20.6-19.1-52.5-12.5-100.9Z"/>
    <path class="f" d="M291.2,420.3a33,33,0,0,1-2.4-7.6,34.8,34.8,0,0,1-.7-7.7,16,16,0,0,1,.6-5c.4-1.1,1.3-3.8,2.9-4.2s4.9,3.3,6.8,6.2a42.2,42.2,0,0,1,7,18.1c.5,3.7,1.2,10-1.3,11.2s-4.6-1.1-6.4-2.5A22.3,22.3,0,0,1,291.2,420.3Z"/>
    <path class="j" d="M481,356.1a129,129,0,0,0-18.8-30.4c-10.1-12.8-19.7-20.7-29.5-28.8A277,277,0,0,0,399.1,273a113.7,113.7,0,0,0,42-34.2c34.4-46.1,18.7-103.2,15.3-115.4-4-14.6-12.8-44.8-40.7-68.1l-2.5-2.1a203.9,203.9,0,0,1,11.4,32.6,196.9,196.9,0,0,1,6.2,47.2c.1,21,.2,46.5-14.5,72.5a111,111,0,0,1-27.2,31.6L332.4,382c6.7,7.8,13.3,14.8,19.6,21.1,0,0,23.9,32.2,81.7,49a45.2,45.2,0,0,0,19,1.8c3.1-.4,17.7-2.6,27.6-14.9,2.8-3.4,5.3-7.8,7.4-15.1C496.3,394.5,485,365.3,481,356.1Z"/>
    <path class="c" d="M430.8,133a196.9,196.9,0,0,0-6.2-47.2,203.9,203.9,0,0,0-11.4-32.6l-4.8-3.5a87.9,87.9,0,0,0-28.5-34.9A88.7,88.7,0,0,0,346.2,0a97.6,97.6,0,0,0-13.5,18.8c-1.4,2.5-2.7,4.9-3.8,7.3h0c-2.6,6.1-5.3,12.2-8,18.2a213.4,213.4,0,0,0-45.2,3.8c-49.8,9.6-85.7,34.8-106.5,52.8a102.5,102.5,0,0,0-5.3,10.5c-5.4,11.9-19.1,42.2-10.2,75.7,3.7,14.2,10.8,26.4,14.6,33a168.1,168.1,0,0,0,20.1,27.8L279.3,302a365.5,365.5,0,0,0,23.5,40.9A372.5,372.5,0,0,0,332.4,382l56.7-144.9a111,111,0,0,0,27.2-31.6C431,179.5,430.9,154,430.8,133Z"/>
    <path class="k" d="M304.4,220.7c-11,4.6-22.8,9.7-31.4,22.2a53.2,53.2,0,0,0-7.9,18.2,75,75,0,0,0-23.7-10.9c-6.1-1.4-9.5-1.1-12.2,0a28.9,28.9,0,0,0-7,4.6,35.1,35.1,0,0,0-3.4,3.5,42.8,42.8,0,0,0-9.7-5c-2.9-1-5.7-1.7-9.4-2.6l-4.9-1.2-7-1.5c-2,.3-7.2,1.4-9.9,5.8s-1.5,9-.4,12.9,4.1,12.9,15.2,22.8c2.4,2.2,9.8,8.5,23.8,14.5,25.8,11.1,48.8,10.5,60.6,10,8.6-.3,13.1-.5,18.8-2.4,16-5.2,25.2-17.2,31-25.1,14.7-19.7,18.1-39.8,20.1-52.4a138.4,138.4,0,0,0,1.7-22.5A118.2,118.2,0,0,0,304.4,220.7Z"/>
    <path class="l" d="M199.7,250.7c3.7.9,6.5,1.6,9.4,2.6a42.8,42.8,0,0,1,9.7,5,35.1,35.1,0,0,1,3.4-3.5,28.9,28.9,0,0,1,7-4.6c2.7-1.1,6.1-1.4,12.2,0a75,75,0,0,1,23.7,10.9,53.2,53.2,0,0,1,7.9-18.2c8.6-12.5,20.4-17.6,31.4-22.2a118.2,118.2,0,0,1,44.3-9.1,154.2,154.2,0,0,0-2.7-28.4c-2.4-12.8-5.2-27.8-16.1-43.7-5.3-7.9-14.9-21.6-32.9-29.2-6-2.5-18.2-7.6-32.1-3.7a43.4,43.4,0,0,0-16.7,9.2c-2.3,2-3.8,3.7-11.8,15.5-9.1,13.4-10.9,16.5-15.9,22.8s-8.2,10.2-12,12.6c-1.4.9-13.2,7.8-24.8,4a67.7,67.7,0,0,1-14.7-6.5c-2.1-1.4-5-3.4-7.7-2.5-.6.3-1.7.8-3.1,3.2s-2.7,8-2.4,13a50.6,50.6,0,0,0,2.2,11.4,141,141,0,0,0,9.5,21.8c5.6,10.4,7.6,12.3,14.5,24.8,2.8,5.1,5,9.2,6.4,12h-.6l7,1.5Z"/>
    <path d="M362,72.6c-.9-14.5-16-32.3-23.6-36.2,2.3-8.7,6.4-23.6,11.4-25.5C360.6,14.8,365.9,48,362,72.6Z"/>
    <path d="M359.1,200.7a72.2,72.2,0,0,1,68.4-13,194.3,194.3,0,0,0-34.6,3.4A199.5,199.5,0,0,0,359.1,200.7Z"/>
    <path d="M363.6,215c16.4-14,40.9-8.8,57.7,2.1C402.1,213.1,382.7,207.8,363.6,215Z"/>
    <path class="m" d="M217,278.7a47.5,47.5,0,0,0,11.3,5.5c14.2,4.7,26.7,1.2,32.3-.5a63.4,63.4,0,0,0,24.1-13.6"/>
    <path class="n" d="M288.9,275a5.6,5.6,0,0,1-4.5-3.1,6,6,0,0,1-.3-5.4,24.4,24.4,0,0,1,1,2.4l1,2.1a21.4,21.4,0,0,0,1.3,1.9C287.8,273.6,288.4,274.2,288.9,275Z"/>
    <path class="d" d="M347.6,245.9l-8-7.5a46.8,46.8,0,0,1,5.3-15.6c1.9-3.2,6.8-11.9,15.9-16.1,16.5-7.7,39.5,2.4,40.6,11.1.3,2.5-1.5,2.9-2.5,7.9s.1,6.3,2.5,17.1,2.8,14.8,2.9,17.4a55.1,55.1,0,0,1-.8,10.5,19.9,19.9,0,0,1-6.7,3.3C383.1,277.4,368.2,264.4,347.6,245.9Z"/>
    <path class="n" d="M216.1,282.2a3.6,3.6,0,0,1,.3-4,4.1,4.1,0,0,1,1.7-1.3,3.1,3.1,0,0,1,2.1-.2,12.1,12.1,0,0,0-2.6,2.4A10,10,0,0,0,216.1,282.2Z"/>
    <path class="n" d="M224.1,255.3c-.3-3.1,4.1-5.3,4.8-5.6,4.9-2.4,11.5-1,12.2,1.4s-.8,2.3-2.2,3.8-5.2,5.5-9.7,4.5C227.2,259,224.4,257.5,224.1,255.3Z"/>
    <path class="o" d="M406.9,385.3a94.9,94.9,0,0,1-5.7-32.2,91.2,91.2,0,0,1,.9-13.4,104,104,0,0,0,11.7-16.5,105.5,105.5,0,0,0,6.2-12.8,177.1,177.1,0,0,1,26.5,29.1c9.9,13.8,13.1,22.6,14.7,28.3,2.5,8.7,5.1,18.1.2,25s-14.4,7.3-18.8,7.6C424.4,401.6,410.7,389.1,406.9,385.3Z"/>
    <ellipse class="c" cx="266.6" cy="203.2" rx="19.5" ry="36.7" transform="translate(-15.2 21.6) rotate(-4.5)"/>
    <ellipse class="p" cx="266.7" cy="206" rx="19.5" ry="35.7" transform="translate(-15.4 21.6) rotate(-4.5)"/>
    <ellipse class="q" cx="265.7" cy="208.3" rx="18.3" ry="33.6" transform="translate(-15.6 21.5) rotate(-4.5)"/>
    <path class="e" d="M340.8,238.8a49.4,49.4,0,0,1,5.8-14.2c2.6-4.1,5.2-8.4,10.4-11.6a28.8,28.8,0,0,1,12.4-3.7c8.4-.7,14.4,1.8,21.7,5,5.6,2.5,7,4.1,7,5.5s-1.5,2.6-2.4,3.2c-8.7,5.9-25,6.9-25,6.9C363.5,230.3,353.3,232.2,340.8,238.8Z"/>
    <path class="g" d="M33.5,381.2a14.4,14.4,0,0,1,3.5-2.8,24,24,0,0,1,14.6-3.3A22,22,0,0,0,41.2,381a21.4,21.4,0,0,0-3.7,5.6Z"/>
    <path d="M271.2,221.9l-.8-.8a4.7,4.7,0,0,1-1.9,1.2c-3.4,1.1-7.4-1.7-8.9-6.3l-.3-1.2a6.6,6.6,0,0,0-5.2,1.4c-4.1,3.3-2.9,11.3,2.5,17.8s13.1,9.1,17.1,5.8S276.6,228.5,271.2,221.9Z"/>
    <path class="c" d="M191.3,227.3c-3.6-6.1-12.2-21.7-8.7-24.6l.9-.5c5.8-1.2,15.3,15.7,17.4,19.7Z"/>
    <ellipse class="p" cx="198.8" cy="229.2" rx="5.6" ry="29.2" transform="translate(-89.3 134.2) rotate(-30.8)"/>
    <ellipse class="q" cx="200.1" cy="231.4" rx="5.6" ry="26.7" transform="translate(-90.3 135.2) rotate(-30.8)"/>
    <path class="j" d="M320.9,44.3c2.7-6,5.4-12.1,8-18.2h0c-15.7-1.5-42.2-3.5-73.8,6.7-11.1,3.6-34.5,11.4-57.4,32.3a143.5,143.5,0,0,0-28.5,35.8c20.8-18,56.7-43.2,106.5-52.8A213.4,213.4,0,0,1,320.9,44.3Z"/>
    <path d="M209.6,241.4a34.6,34.6,0,0,0-6.1-6.4,2.4,2.4,0,0,1-1.9,1.2,2.3,2.3,0,0,1-2.2-2.1c-1.5,1.4.3,6.7,4.2,12.1s8.5,8.7,10.2,7.4S213.6,246.8,209.6,241.4Z"/>
    <path class="n" d="M266.8,255.2c.6-1.8,1.3-3.6,2-5.3s1.7-3.4,2.6-5a49.9,49.9,0,0,1,7-8.9,45.8,45.8,0,0,1,8.7-7.1,47.1,47.1,0,0,1,10-5.1c-1.7.9-3.3,1.7-4.9,2.7a46.6,46.6,0,0,0-4.7,3,58,58,0,0,0-8.4,7.2,71.1,71.1,0,0,0-7,8.6A58.7,58.7,0,0,0,266.8,255.2Z"/>
    <path class="n" d="M195.9,249.8a42.2,42.2,0,0,1,11.1,2.3,47.5,47.5,0,0,1,10.1,5c-3.5-1.4-6.9-2.8-10.5-4S199.5,250.8,195.9,249.8Z"/>
    <path class="c" d="M341.4,468.3a40.4,40.4,0,0,1-19.4-9.9c-2.8-2.5-5.4-5.6-9.7-13.8a191.7,191.7,0,0,1-11.7-26.1c-6.6-26.4-12.5-48-14-58.7-1.1-7.9-2.2-18-2.8-29.9-.1-2-.3-9.8.8-15a6.6,6.6,0,0,1,1.4-3.3,8.1,8.1,0,0,1,4.9-2.5c3-.5,14.5-6.8,29.5-32.5,10.6-18.3,8.2-21.1,19.2-38.2,9.9-15.3,14.9-17.9,17.6-19,12-5,27.7-1,31.3,2.1a4.6,4.6,0,0,0,2.6,1.4c3.4.6,6.4-3,6.9-2.6s-2.2,2.6-2.9,6.1a12,12,0,0,0,.4,5.5c1.2,4.5,1.8,9.2,3.6,13.6,3.7,8.9,2.4,27.9,1.1,36.1-4.9,30.8-33.5,53.3-37.5,56.3a123.2,123.2,0,0,0-1.9,19.8c-.8,42.3,19,75.3,32,92.9Z"/>
    <path class="r" d="M368.6,290.5c3.1-7.9,6.7-16.9,8.6-26.2,2.8-13.2,1-21,3.5-21.6s7.2,7.1,9.4,13.9c5.9,17.5-2,33.5-4.3,38.2s-7.5,15.1-15.1,15.7c-.7,0-4.3.2-6.2-2.1S364.9,299.8,368.6,290.5Z"/>
    <path class="d" d="M322,458.4a11.9,11.9,0,0,0,7.3-1.4c4.4-2.8,5.7-8.7,6.1-18.1.7-13.7-1.3-18.3-1.9-31.8s-.9-21.8,4.1-28.5,10.4-8.1,14.6-9.3a102.7,102.7,0,0,0-8.3,38.8,105.2,105.2,0,0,0,11.6,50,16.1,16.1,0,0,1-6.6,8C341.7,470.2,330.5,467.5,322,458.4Z"/>
    <path class="e" d="M403.4,494.6c-10.5-2.9-15.7-4.3-20.6-2.2s-3.5,3-13.5,11.5c-4.8,4.1-7.3,6.1-9.3,7.2a30.7,30.7,0,0,1-8,2.8c7.5,1.2,16.3,1.5,27.5.8a244.9,244.9,0,0,0,48.1-8.3l-3.1-2.4A64.5,64.5,0,0,0,403.4,494.6Z"/>
    <path class="c" d="M452.4,471.4a117,117,0,0,0-15.5-13.7l1.2-5c-14.6-24.5-20-44.2-22.1-58.3-1.1-6.8-2.3-18.9-11.4-28.4a36.2,36.2,0,0,0-20.5-10.6c-15.1-2.1-26.1,6.8-28.2,8.6-10.6,8.5-13.4,20.1-14.8,26.3-2.5,10.6-1.2,19.3,1.5,36.3a261.1,261.1,0,0,0,7.3,32.7,21.9,21.9,0,0,0-4.3,2.2c-11.1,6.6-15.7,17.6-17.4,22a53,53,0,0,0-3.7,20,83.4,83.4,0,0,0,12.1,6.1,70.9,70.9,0,0,0,15.4,4.3,30.7,30.7,0,0,0,8-2.8c2-1.1,4.5-3.1,9.3-7.2,10-8.5,9.9-10,13.5-11.5s10.1-.7,20.6,2.2a64.5,64.5,0,0,1,21.1,9.4l3.1,2.4c4.4-1.2,8.9-2.6,13.7-4.2a170.6,170.6,0,0,0,20.4-6.4c1.7-.7,2.9-1.1,3.6-2.3C468.2,488.2,457.8,477.1,452.4,471.4Z"/>
    <path class="h" d="M364.1,369.4a33.2,33.2,0,0,1,18-4c3.5.1,11.5,1,11.8,3.3s-9.2,3.9-22.1,10.4c-15.9,8-21.4,16.1-23.3,14.5S351.8,376.5,364.1,369.4Z"/>
    <path class="d" d="M347.8,451.3l2.1,8a107.1,107.1,0,0,1,21.5-5.9,105.9,105.9,0,0,1,23.5-1.4,152.6,152.6,0,0,0-27.2-2.2A165,165,0,0,0,347.8,451.3Z"/>
    <path class="s" d="M436.9,457.7a56.9,56.9,0,0,0-6.8-2,54.3,54.3,0,0,0-6.2-1.1l7.2.6a54.3,54.3,0,0,1,6.2.9Z"/>
    <path class="b" d="M379.5,514.7a11.7,11.7,0,0,0,6.1-1.7,22.9,22.9,0,0,1,2.4-1.5c.6-.2,1.9-.6,6,0a33.3,33.3,0,0,1,4.7,1.1L387.1,514Z"/>
    <path class="d" d="M395,298.4a84.6,84.6,0,0,1-48.7,32.9,77.7,77.7,0,0,1-39.3-1.4,125.9,125.9,0,0,0,33.2,10.8c9,1.6,15.4,2.7,21.9,1.3h0l.6-4.1C365.9,335.5,385.1,320.3,395,298.4Z"/>
    <path class="t" d="M306.3,513.9c-19.4.1-37.8-.1-54.9-.5-21-.6-39.7-1.4-62.1-8.5-8.6-2.7-20.7-6.5-20.4-10.4.5-6.6,34.9-9.2,52.6-10.5,44.9-3.4,63,.5,102.4-1.5,25.8-1.3,25.6-3.9,59.5-6.7,29.1-2.4,52.9-2.8,68.4-2.8,12.2,1.8,28.8,4.3,48.5,7.7,24.5,4.1,29.5,5.4,29.9,7.9,1.1,7.4-38.3,20.3-64.9,26.5C431.3,523.1,377.9,529.6,306.3,513.9Z"/>
  </g>
</svg>
