<svg xmlns="http://www.w3.org/2000/svg" viewBox="0 0 175.9 139.2">
  <defs>
    <style>
      .a {
        opacity: 0.14;
      }

      .b {
        fill: #fff;
      }

      .c {
        fill: #ca43c1;
      }

      .d {
        fill: #e9468a;
      }

      .e {
        fill: #fa5051;
      }

      .f {
        fill: #a43de2;
      }

      .g {
        fill: #9c4adb;
      }

      .h {
        fill: #8a4fe0;
      }

      .i {
        fill: #824be4;
      }

      .j {
        fill: #ea468b;
      }

      .k {
        fill: #f74d61;
      }

      .l {
        fill: #a748d6;
      }

      .m {
        fill: #6162e4;
      }

      .n {
        fill: #4679e3;
      }

      .o {
        fill: #e3595a;
      }
    </style>
  </defs>
  <g>
    <path class="a" d="M13.8,60.1c-2.9-.2-9.5-.5-12.4,3.4S.1,70.6.7,73.2c0,0,2.5,11,7.2,41.7,1.9,13,.8,14.7,3.5,18,6,7.3,17.5,6.6,31.2,6,0,0,30.8-1.3,59-.9,18.3.3,29.5,0,51.8-.8,8.4-.3,18.9-.8,21.8-6.8,1.5-3.2.6-7-2.7-13.8-4.2-8.6-9.2-18.9-20-28.4C129.4,67.7,90.6,64.9,13.8,60.1Z"/>
    <path class="b" d="M4.9,55.8c.4-3.9.9-7.7,1.3-11.6l4.8-5,3.2-.7,2.6-3.3,3.3-.7-1.2-4.8,5.4-4.5,1.2-5.6L24.3,17V13.7l1.2-1.2-1.2-2.3v-3L33.5,4,72.2,2.4l29.5,3.3,6.2,1.5v3l-.8,2.6.8.9V17l-1.3,4.4,1.3,3.8,4.1,4.6-.3,1.1h5L134,49.7l18.8,8.7,3,10.4-1.4,1.4,1.1,1.2.9,3.3-1.1,3.6,4.7,22.6-3.3,20.5-.2,1.1h-7.7l-7.3-3.9-70.6-.5-56.5,4.7-1.2-2.1-2.6-11.5L9.4,95.4Z"/>
    <path class="c" d="M64.2,45.8c-24.1,0-42.3-4.1-45.4-10.2V29.9c0-.2.1-.2.1-.2,7.3,6.3,29.7,8.6,46.6,8.6s39.1-2.3,46.2-8.6h.1c.1,0,.2,0,.2.1v.5c.1,2.3.2,4.9-.4,6.5-4.6,5.2-24.6,9-47.4,9Z"/>
    <path class="d" d="M66.1,33.2c-5.3,0-10.6-.2-15.7-.6a109.8,109.8,0,0,1-15.3-2.2A44.4,44.4,0,0,1,28,28.3c-2.3-1.1-3.7-2.2-3.7-3.1V17a22.8,22.8,0,0,0,6.2,2.8l2.4.6c8.3,2.1,20.4,3.3,33.2,3.3S91,22.5,99.3,20.4L101,20a21.6,21.6,0,0,0,6.9-3v8.2c0,1-1.6,2.2-4.3,3.3a53.6,53.6,0,0,1-7.5,2.2A148.9,148.9,0,0,1,75.9,33C72.6,33.2,69.3,33.2,66.1,33.2Z"/>
    <path class="e" d="M66.1,21.7c-12.7,0-24.6-1.1-32.7-3.2l-2.3-.6c-5-1.6-6.8-3.2-6.8-4.2V10.2a7.7,7.7,0,0,0,1.8,1c6.7,3.2,22.4,5.2,40,5.2s33.3-2,40.1-5.2a9.5,9.5,0,0,0,1.7-1v3.5c0,1.1-1.9,2.8-7.4,4.4l-1.7.4C90.7,20.6,78.8,21.7,66.1,21.7Z"/>
    <path class="f" d="M156.5,122.5a1.7,1.7,0,0,1-1.3-.7,1.8,1.8,0,0,1-.4-1.4l3.1-20.3a3.8,3.8,0,0,0,0-1.5l-5.2-22.7a1.9,1.9,0,0,1,1.6-2.4h.4a2,2,0,0,1,1.9,1.9v3a4.1,4.1,0,0,0,2.6,3.6,1.1,1.1,0,0,1,.7.3c2.3,1.3,2.9,4.6,3.3,7.8.8,6.6,1.2,9.9.5,16.3-.2,2-1.2,6.6-2.6,13a3.9,3.9,0,0,1-3.8,3.1Z"/>
    <path class="g" d="M115.7,66.6c-23.5-.1-42.9-.5-58.4-.8-10.7-.3-19.1-.5-25.5-.5a73.5,73.5,0,0,0-11.7.6,2.4,2.4,0,0,0-1.4.5l-1.2-8.9a1.4,1.4,0,0,1,.4-1.4,1.7,1.7,0,0,1,1.3-.7l.8.2c8.8,4.4,26.9,7.3,45.9,7.3s36.6-3.1,45.6-8.5a1.4,1.4,0,0,1,.9-.3,1.6,1.6,0,0,1,1.6,1.1l1.3,3c1,2.4,2.1,4.8,2.2,6.6A1.5,1.5,0,0,1,117,66,1.6,1.6,0,0,1,115.7,66.6Z"/>
    <path class="h" d="M14.9,54.9h-.4l-3.1-1.5a1,1,0,0,1-.6-.8c0-4.2-.1-8.3-.1-12.5a1.1,1.1,0,0,1,.3-.8l1.9-1.5.5-.2h.4a3.1,3.1,0,0,0,1.9-1.1,11.4,11.4,0,0,1,1.1-1.1v1.2a4.8,4.8,0,0,0-2.3,3.9v9.9a5.8,5.8,0,0,0,1.2,3.2,1.1,1.1,0,0,1,0,1,1,1,0,0,1-.8.5Z"/>
    <path class="i" d="M35.6,99.6a8.5,8.5,0,0,1-8.5-7.5L25.2,76.5a6.5,6.5,0,0,1,6.3-7.1h.2L116.1,73a8,8,0,0,1,7.1,5.4c.6,1.9,1.2,4,1.7,6s.7,2.8,1,4.2a8.6,8.6,0,0,1-1.7,7.4,9,9,0,0,1-7,3.3Z"/>
    <path class="j" d="M123.7,72.3c-.3-.1-.5-.2-.5-.6.3-1.9.6-3.9,1-5.8l27.7-1.5a4,4,0,0,1,3.9,4.4l-.3,2.6Z"/>
    <path class="k" d="M125.5,63.9a2.7,2.7,0,0,1-2.3-1.4c0,.2-8.9-15.6-8-14.9V40.3c.3-1.3-1.4-2.8-1.3-4s.1-2.4.1-2.9c-.2-4.2,8.1-2,10.3-2.5A16.7,16.7,0,0,1,138.1,38C158.9,67.1,160.4,61.6,125.5,63.9Z"/>
    <path class="l" d="M64.9,60.5c-27.4,0-47.1-5.1-48.4-9.9-.2-.6.1-6.1,0-6.7,18.2,12,78.4,11.9,96.8,0v4.6c.1,1.4,0,3-1.3,3.9C98.8,60.2,79.9,59.9,64.9,60.5Z"/>
    <path class="m" d="M150.7,101.3c-35.1,2.4-88.2.6-123.6,1.4H18.2c-6.6-.3-4,13.2-5,16.9a4.3,4.3,0,0,0,4.3,4.5l131.3-1.6c6.1.4,4.9-12.8,6.2-16.2A4.3,4.3,0,0,0,150.7,101.3Z"/>
    <path class="n" d="M4.7,68.7a34.8,34.8,0,0,1-.2-7.9l1-12a.6.6,0,0,1,1.2-.1l4.2,25.7h0l1.3,27.3h0l-.4,7.5a.6.6,0,0,1-1.2,0Z"/>
    <path class="o" d="M105.7,9.2C98.8,5.9,83.3,3.7,66.1,3.7S33.5,5.9,26.5,9.2c-2-1-2.2-1.8-2.2-2,0-3,15.9-7.2,41.8-7.2s41.8,4.2,41.8,7.2C107.9,7.4,107.8,8.2,105.7,9.2Z"/>
    <path class="b" d="M66.1,14.4c-15.3,0-29.6-1.6-37-4.1,7.3-2.8,21.7-4.6,37-4.6s29.7,1.8,37.1,4.6C95.8,12.8,81.7,14.4,66.1,14.4Z"/>
  </g>
</svg>
