<svg xmlns="http://www.w3.org/2000/svg" xmlns:xlink="http://www.w3.org/1999/xlink" viewBox="0 0 157.8 85.7">
  <defs>
    <style>
      .a {
        fill: none;
      }

      .b {
        isolation: isolate;
      }

      .c {
        fill: url(#a);
      }

      .d {
        fill: #17589c;
      }

      .e {
        fill: #0b66c3;
      }

      .f {
        fill: url(#b);
      }

      .g {
        fill: #0e4782;
      }

      .h {
        fill: #084c91;
      }
    </style>
    <linearGradient id="a" x1="80.17" y1="7.52" x2="114.62" y2="7.52" gradientUnits="userSpaceOnUse">
      <stop offset="0.41" stop-color="#17589c"/>
      <stop offset="0.57" stop-color="#0b66c3"/>
    </linearGradient>
    <linearGradient id="b" x1="115.32" y1="52.35" x2="157.82" y2="52.35" xlink:href="#a"/>
  </defs>
  <g>
    <polygon class="a" points="98.4 80.6 98.4 80.6 98.4 80.6 98.4 80.6"/>
    <g class="b">
      <path class="c" d="M114.6,8.1c-.1,1.8-1.6,3.5-4.7,4.9l-1.1.5c-6.6,2.3-16.7,2-23.2-.8C81.9,11.1,80.1,9,80.2,7s1.6-3.6,4.7-4.9c6.5-2.9,17.4-2.8,24.3.3C112.9,4,114.7,6.1,114.6,8.1Z"/>
    </g>
    <g>
      <polygon class="d" points="0 41.2 21.4 50.6 66.2 31 66.2 12.3 0 41.2"/>
      <polygon class="e" points="66.2 12.3 66.2 31 87.6 21.6 66.2 12.3"/>
    </g>
    <g>
      <path class="e" d="M124.5,37.2l-20.9-9.1v18l3.2,1.3h.4a31,31,0,0,1,8.1,1.1V41.2Zm-20.9,8.9Z"/>
      <path class="f" d="M146.6,44.6a48.7,48.7,0,0,0-16.2-3.9,87.5,87.5,0,0,0-15.1.5v7.3a28.3,28.3,0,0,1,4.1,1.4c4.1,1.8,6.2,3.6,6.3,5.5h0v2.1h4.7a48.7,48.7,0,0,1,16.2,3.9,31.9,31.9,0,0,1,4.9,2.5c3.6-2.5,5.6-5,6.2-7.5Q159.1,50,146.6,44.6Z"/>
      <path class="g" d="M103.6,47.6l3.2-.2-3.2-1.3Z"/>
      <path class="d" d="M122.6,76.4l1.3-1a3.8,3.8,0,0,0,1.8-2.9v-17a3.2,3.2,0,0,1-.9,2.1,13.6,13.6,0,0,1-4.7,3l-9.3,4L82.7,76.7l19.7,8.5,17.7-7.6Z"/>
      <path class="g" d="M91.9,51.2l3.2-1.3a29,29,0,0,1,8.5-2.3V46.1Z"/>
      <polygon class="d" points="103.6 28.1 37 56.8 57.9 65.9 91.9 51.2 103.6 46.1 103.6 28.1"/>
      <path class="h" d="M130.4,57.7h-4.7V72.5a3.8,3.8,0,0,1-1.8,2.9l-1.3,1-2.5,1.2-17.7,7.6,1.2.5,22.1-9.4,15.4-6.7a57.7,57.7,0,0,0,10.4-5.5,31.9,31.9,0,0,0-4.9-2.5A48.7,48.7,0,0,0,130.4,57.7Z"/>
    </g>
  </g>
</svg>
