<svg xmlns="http://www.w3.org/2000/svg" viewBox="0 0 263.3 144.2">
  <defs>
    <style>
      .a {
        opacity: 0.14;
      }

      .b {
        fill: #2c93e1;
      }

      .c {
        fill: #2572d7;
      }

      .d {
        fill: #30a3e6;
      }
    </style>
  </defs>
  <g>
    <path class="a" d="M263.3,139.3c-.1,2.6-6.1,4.7-10.9,4.9a20.8,20.8,0,0,1-7-1C223.3,139,191,132.8,152,124.4,95.3,112.1,34.8,98.9,35.7,91.6c.1-1.3,2.3-2.6,46.4-8,25.2-3,37.7-4.3,40.5-4.6,51.1-6.3,96.5,40.4,132.7,54.6C257.4,134.5,263.5,136.8,263.3,139.3Z"/>
    <path class="b" d="M129.9,3.8a11.5,11.5,0,0,0-14.6-1.1L82.9,26.1a16.8,16.8,0,0,0-7,12.6c-.1,2.3-.3,4.6-.4,6.8l182.8,97.1.3-6.3a3.2,3.2,0,0,1,1-2l.6-.7a1.7,1.7,0,0,0,0-2.6Z"/>
    <path class="a" d="M75.4,46.6l.5-6.6a13.2,13.2,0,0,1,.2-2.7,20.3,20.3,0,0,1,1.3-4.5L258.6,136.3l-.3,6.3Z"/>
    <path class="c" d="M258.3,142.6,78.8,86.6A9.1,9.1,0,0,1,73.1,81l-3-8.7L256,138C256.7,139.5,257.5,141,258.3,142.6Z"/>
    <path class="d" d="M256,138a9.6,9.6,0,0,1-2.5.7c-2.6.5-4.9-.1-7.3-.8l-3.1-1.1L70.1,72.3,2.9,47.3a4.5,4.5,0,0,1,1.3-8.7l46.1-2.9a25.2,25.2,0,0,1,13.2,2.8l12.1,6.2Z"/>
    <path class="a" d="M102,12.3a9.6,9.6,0,0,0,3.9,6c1.7,1,4.1,1.6,8.9.3,8.2-2,14.8-7,18.9-11l-2.2-2.2c-2.1-2-2.8-2.5-3-2.7a16.6,16.6,0,0,0-3.2-2c-2.9-1.4-6.1-.4-7.3,0-4,1.2-5.1,3.4-11.4,8.3Z"/>
  </g>
</svg>
