<?xml version="1.0" encoding="utf-8"?>
<!-- Generator: Adobe Illustrator 24.1.1, SVG Export Plug-In . SVG Version: 6.00 Build 0)  -->
<svg version="1.1" id="Layer_1" xmlns="http://www.w3.org/2000/svg" xmlns:xlink="http://www.w3.org/1999/xlink" x="0px" y="0px"
	 viewBox="0 0 263.3 144.2" style="enable-background:new 0 0 263.3 144.2;" xml:space="preserve">
<style type="text/css">
	.st0{opacity:0.14;enable-background:new    ;}
	.st1{fill:#2C93E1;}
	.st2{fill:#2572D7;}
	.st3{fill:#30A3E6;}
	.st4{fill:#211928;}
</style>
<g>
	<path class="st0" d="M263.3,139.3c-0.1,2.6-6.1,4.7-10.9,4.9c-2.4,0.1-4.7-0.3-7-1c-22.1-4.2-54.4-10.4-93.4-18.8
		C95.3,112.1,34.8,98.9,35.7,91.6c0.1-1.3,2.3-2.6,46.4-8c25.2-3,37.7-4.3,40.5-4.6c51.1-6.3,96.5,40.4,132.7,54.6
		C257.4,134.5,263.5,136.8,263.3,139.3z"/>
	<path class="st1" d="M129.9,3.8c-4-3.8-10.1-4.3-14.6-1.1L82.9,26.1c-4.1,2.9-6.7,7.6-7,12.6c-0.1,2.3-0.3,4.6-0.4,6.8l182.8,97.1
		l0.3-6.3c0.1-0.8,0.4-1.5,1-2l0.6-0.7c0.7-0.6,0.8-1.7,0.2-2.4c-0.1-0.1-0.1-0.1-0.2-0.2L129.9,3.8z"/>
	<path class="st0" d="M75.4,46.6l0.5-6.6c0-0.9,0-1.8,0.2-2.7c0.3-1.5,0.7-3.1,1.3-4.5l181.2,103.5l-0.3,6.3L75.4,46.6z"/>
	<path class="st2" d="M258.3,142.6l-179.5-56c-2.7-0.9-4.8-3-5.7-5.6l-3-8.7L256,138C256.7,139.5,257.5,141,258.3,142.6z"/>
	<path class="st3" d="M256,138c-0.8,0.3-1.6,0.6-2.5,0.7c-2.6,0.5-4.9-0.1-7.3-0.8l-3.1-1.1l-173-64.5l-67.2-25
		c-2.3-0.9-3.5-3.5-2.6-5.8c0.6-1.7,2.2-2.8,3.9-2.9l46.1-2.9c4.6-0.3,9.1,0.7,13.2,2.8l12.1,6.2L256,138z"/>
	<path class="st0" d="M102,12.3c0.5,2.4,1.9,4.6,3.9,6c1.7,1,4.1,1.6,8.9,0.3c8.2-2,14.8-7,18.9-11l-2.2-2.2c-2.1-2-2.8-2.5-3-2.7
		c-1-0.8-2.1-1.5-3.2-2c-2.9-1.4-6.1-0.4-7.3,0c-4,1.2-5.1,3.4-11.4,8.3L102,12.3z"/>
</g>
<path class="st4" d="M106.6,9c0.5,1.6,1,2.3,1.5,2.8c0,0,0.6,0.6,1.3,0.9c3,1.5,10.4-3.2,11-3.6c1.6-1,4.7-3.1,8.1-6.4
	c1.1-1.1,2-2,2.5-2.7c-8.5,0-17,0-25.5,0c-0.1,2.2,0,4,0.2,5.3C105.9,6.1,106.1,7.4,106.6,9z"/>
</svg>
