<svg xmlns="http://www.w3.org/2000/svg" viewBox="0 0 203.3 292.4">
  <defs>
    <style>
      .a, .l, .o, .q {
        fill: #fff;
      }

      .b {
        opacity: 0.14;
      }

      .c {
        fill: none;
      }

      .d {
        fill: #c47a33;
      }

      .e {
        fill: #df8a3a;
      }

      .f {
        fill: #1a8dd4;
      }

      .g {
        fill: #1da1f3;
      }

      .h {
        fill: #1c9ae8;
      }

      .i {
        fill: #0a0d0d;
      }

      .j {
        fill: #1679b6;
      }

      .k {
        fill: #1ea4f7;
      }

      .l, .m {
        opacity: 0.2;
      }

      .n {
        opacity: 0.1;
      }

      .o {
        opacity: 0.17;
      }

      .p {
        fill: #1a92db;
      }

      .q {
        opacity: 0.08;
      }

      .r {
        fill: #dab239;
      }

      .s {
        fill: #cb972b;
      }

      .t {
        fill: #ca962b;
      }
    </style>
  </defs>
  <g>
    <circle class="a" cx="107.6" cy="82.2" r="24.7"/>
    <circle class="a" cx="157.9" cy="82.2" r="20"/>
    <path class="b" d="M202.5,265.7c-1.9-3.9-7-6.6-12.8-8.7-25-9.2-43.7-1.9-81.6-4.4-29.1-1.8-40.4-7.5-78.3-7.5-9,0-21.9.3-24.2,4.1s3,5.9,16.1,16c19.2,14.8,17.1,14.1,20,15.7,12.3,6.8,24.5,6.1,61.1,7.8,57.6,2.8,66.1,6.3,79.9.6C194.9,284.2,206.4,273.8,202.5,265.7Z"/>
    <g>
      <path class="c" d="M129.1,275.2h0Z"/>
      <path class="d" d="M85.7,266.8c-5.3.2-2.8.3-5.5.4a4.6,4.6,0,0,0-2.1.5,3.5,3.5,0,0,0-.9.7.7.7,0,0,0,.6.3h.3a36.7,36.7,0,0,1,7.4-1.1,6.7,6.7,0,0,0,1.9-.9Z"/>
      <path class="d" d="M85,268.9a63,63,0,0,0-10.7,5.5l-3.7,2.5a.1.1,0,0,1,.1.1l.5-.2a74.2,74.2,0,0,1,15-7.3l3.3-1,.4-1.3Z"/>
      <path class="d" d="M131.5,263.5l-2.7-.4,2.6,1.2,6.6.7h.1a1.1,1.1,0,0,0,.9-.5l-4.7-.6Z"/>
      <path class="d" d="M128.1,268.7a37.5,37.5,0,0,1,1.7,6,.8.8,0,0,0,.2-.7,30.5,30.5,0,0,0-2-6.7,24.4,24.4,0,0,0-1.4-2.8l-.7-.3A47.5,47.5,0,0,1,128.1,268.7Z"/>
      <path class="d" d="M101.6,266.2H101a.3.3,0,0,1-.1-.2l-.3-.2a.7.7,0,0,1-.2.6,1.1,1.1,0,0,1-.7.3H96.1c-1.5-.1-3.5-.3-4.1.7a.6.6,0,0,0-.1.4,23,23,0,0,1,4.5-.5h3.5a1,1,0,0,0,1-.5h1.6A2.6,2.6,0,0,0,101.6,266.2Z"/>
      <g>
        <path class="e" d="M99.5,241.4l-9,24.4a40,40,0,0,0-12.9.9,1,1,0,0,0-.7.8,1.4,1.4,0,0,0-1,1.4,1,1,0,0,1,1.1-.7.2.2,0,0,0,.2.2,4,4,0,0,1,3-1.2c1.2-.1,3.8-.4,7.2-.5a6.7,6.7,0,0,1-1.9.9h0c-2,.7-17,6.7-15.7,8.8a1.7,1.7,0,0,0-.1,1.2,2.2,2.2,0,0,1,.5-.8h.4a62.7,62.7,0,0,1,19.3-9.7l-.4,1.3h0c-.6,1.7-3.7,9.1-2.2,10.1a5,5,0,0,0,.2,1.2,4.9,4.9,0,0,1,.4-1.1.8.8,0,0,0,.8-.7,50.4,50.4,0,0,1,3.2-10.2H92c.6-2.2,4.3-.7,7.7-1.1a1.1,1.1,0,0,0,1.1-1c-2.7-.9-6-.3-8.8,0l9-24.7A1,1,0,0,0,99.5,241.4Z"/>
        <path class="d" d="M92.7,265.7l8.6-23.6a.9.9,0,0,0-.3-1.1l-9,24.7Z"/>
        <path class="e" d="M143.3,273c-.2-.7-.7-.8-1.3-1.4a41.8,41.8,0,0,0-13.2-8.5c3.6.6,6.2.8,10.2,1.4h0c.6-.1,1.3,0,1.5.7.2-.9-.8-1.5-1.5-1.6a1.2,1.2,0,0,0-.8-.6c-4.3-.5-8.6-1-13-1.3l-.9.2c0-1.8-.4-15-1.2-17.9a.9.9,0,0,0-1,1.1c.6,5.4,1,10.9,1.2,16.4-1.6,0-6.9-1-7.5.5s-1.4.4-1.5,1,1-.3,1.5-.3a1.1,1.1,0,0,0,1,.6,26.6,26.6,0,0,1,6.9.3,27.6,27.6,0,0,1,4.3,10.8,1.1,1.1,0,0,0,.8.8h.1a4.9,4.9,0,0,1,.4,1.1,7,7,0,0,0,.3-1.4.2.2,0,0,0,.2-.2,34.1,34.1,0,0,0-1.4-5.2,38.1,38.1,0,0,0-2.5-5.3l.7.3h0a47.3,47.3,0,0,1,14.8,8.4.9.9,0,0,0,1,.1c.4,0,1,.8.9,1.1A2.1,2.1,0,0,0,143.3,273Z"/>
        <path class="d" d="M124.3,261.9l.9-.2a156.2,156.2,0,0,0-1.1-16.8,1.1,1.1,0,0,0-1-.9C123.9,246.9,124.3,260.1,124.3,261.9Z"/>
        <path class="d" d="M142,271.6l.6.5.4.3h.1c.2-.7-.9-1.8-4.1-3.8a58.1,58.1,0,0,0-5.6-3.2l4.8,3.5A42.7,42.7,0,0,1,142,271.6Z"/>
      </g>
    </g>
    <g>
      <g>
        <path class="f" d="M35.3,193.1a29.1,29.1,0,0,0-7.5-13.8,29.6,29.6,0,0,0-17.7-8.7,66.9,66.9,0,0,1,14.2,10A68.6,68.6,0,0,1,35.3,193.1Z"/>
        <path class="g" d="M35.3,193.1a36.3,36.3,0,0,0-14.4-14.3A36.8,36.8,0,0,0,0,174.7a90.2,90.2,0,0,1,14.3,5.2A96.8,96.8,0,0,1,35.3,193.1Z"/>
        <path class="g" d="M34.9,193.1a36.5,36.5,0,0,0-.9-9.6c-.9-4.5-2.4-11.5-8.2-16.9A25.7,25.7,0,0,0,14,160.4a72.6,72.6,0,0,1,9.6,11A81.1,81.1,0,0,1,34.9,193.1Z"/>
        <path class="h" d="M35.3,193.1c-.5-1-4.3-8.9-.2-17a19.4,19.4,0,0,1,8.5-8.2,38.5,38.5,0,0,0-8.3,25.2Z"/>
        <path class="h" d="M35.3,193c.2-.2-1.8-2.6-4.6-4.2s-6.3-2.9-13.3-1.6a17.9,17.9,0,0,1,6.7,1.3l1.5.6-1.4,1.1a15.3,15.3,0,0,1,4.1.2C32.5,191.2,35.1,193.3,35.3,193Z"/>
      </g>
      <path class="i" d="M105.4,71.5a1.8,1.8,0,0,0-1,.2,5.7,5.7,0,0,1,.3,1.5c0,1.8-1.2,3.3-2.6,3.3a2,2,0,0,1-1.1-.3,15.4,15.4,0,0,0-.8,5c0,5.4,2.4,9.8,5.2,9.8s5.2-4.4,5.2-9.8S108.3,71.5,105.4,71.5Z"/>
      <path class="i" d="M156.2,69.7l-1.1.2a3.7,3.7,0,0,1,.3,1.5c0,1.8-1.2,3.3-2.6,3.3a2,2,0,0,1-1.1-.3,15.9,15.9,0,0,0-.7,5c0,5.4,2.3,9.8,5.2,9.8s5.2-4.4,5.2-9.8S159,69.7,156.2,69.7Z"/>
      <path class="j" d="M197.1,190.9c-3.3,15.1-15.8,23-20.1,25.3a58.2,58.2,0,0,0,5.9-10.1c4.8-10.1,5.4-22.4,4.9-42.8-.1-1-.1-2.2-.1-3.3a29.6,29.6,0,0,1,6.5,7.9C199.9,177.9,197.7,188.2,197.1,190.9Z"/>
      <path class="g" d="M183.2,101.1c-2.1-11.4-3.9-21.2-7-30a64.8,64.8,0,0,0-12.7-21.7c-4.7-5.3-14.4-16.1-30.1-18.1s-28.6,6.2-32.7,9c-16.8,11.3-22.3,29-24.9,37.4-3.1,10.1-2.1,13.4-3.4,28.2,14.8,17,26,30.3,33.6,39.4,2.1,2.6,4,4.8,6,6.9a43.1,43.1,0,0,0,7.2,5.7c10.3,6.4,26.9,10.9,40.6,3.9,6.6-3.4,10.3-8.3,15.3-14.8a79,79,0,0,0,11.1-20.2A187.5,187.5,0,0,0,183.2,101.1ZM162.4,88.2a70.2,70.2,0,0,1-17.1-.8l11,9.9a1.7,1.7,0,0,1,.6,1.6,1.9,1.9,0,0,1-.7,1.2l-14,9.1a4.7,4.7,0,0,1-5.3,0c-2.5-1.6-6.2-4.2-8.2-7a14.2,14.2,0,0,1-1.2-2.5,14.9,14.9,0,0,1,.7-9.3,3.3,3.3,0,0,1,.6-1,161.1,161.1,0,0,1-18,2.4l-4,.2H105a155.1,155.1,0,0,1-20-.8,31.7,31.7,0,0,1,2.2-17.4A25.7,25.7,0,0,1,96,62.7c1-.7,12.6-8.6,23.4-3,6.3,3.1,9,9.1,10.2,13,.5,1.6.8,2.9.9,3.4a25.9,25.9,0,0,1-.4,11.4A10.4,10.4,0,0,1,141.5,85a28.4,28.4,0,0,1,1.6-12.5,20.2,20.2,0,0,1,8.4-10.7c1.1-.7,5.7-3.5,10.9-2.4s9.4,5.4,12.1,11.8A37.8,37.8,0,0,1,177,85.6,74,74,0,0,1,162.4,88.2Z"/>
      <path class="f" d="M85,91.3a20.7,20.7,0,0,0,7.7,8.1c4.9,2.7,9.6,2.4,13.5,2.1a35.1,35.1,0,0,0,19.3-7.9,40.1,40.1,0,0,0,4.6-4.4Z"/>
      <path class="f" d="M142.3,87a84.6,84.6,0,0,0,11.8,1.4,70.7,70.7,0,0,0,12.4-.6A65.6,65.6,0,0,0,177,85.6a12.7,12.7,0,0,1-1.3,3.9c-3.4,6.1-12.6,7.2-18.3,6.4C148.9,94.8,143.7,88.8,142.3,87Z"/>
      <path class="h" d="M187.8,163.3c-.1-1-.1-2.2-.1-3.3-.2-5.5-.5-11.5-.8-18.2s-.4-10.6-.7-15A79,79,0,0,1,175.1,147c-5,6.5-8.7,11.4-15.3,14.8-13.7,7-30.3,2.5-40.6-3.9a43.1,43.1,0,0,1-7.2-5.7c-2-2.1-3.9-4.3-6-6.9-7.6-9.1-18.8-22.4-33.6-39.4-.3,3.1-.7,6.6-1.2,10.9l-.6,4.3c-2.4,17.2-3.6,25.7-6.8,34.5-.8,2.1-1.8,4.5-3,7.1A53,53,0,0,1,72,157.3c4.5-1.6,8.2-2.8,12.7-2,8.1,1.5,15.6,9.9,18.6,17.7,6,15.2-2.5,29.7-4.4,32.9s-7.5,12.7-18.2,16.5-21.7-.2-25.5-1.8a41.7,41.7,0,0,1-16.1-11.9c.7,1.7,1.6,3.4,2.5,5.1,17.9,31,69.5,45,106.8,26.5,4.7-2.3,18.5-9.8,28.6-24.1a58.2,58.2,0,0,0,5.9-10.1C187.7,196,188.3,183.7,187.8,163.3Z"/>
      <path class="k" d="M102.3,205.6c-1.7,3.5-6.6,13.8-18.2,18.7a31.9,31.9,0,0,1-14.2,2.2,40.3,40.3,0,0,1-15.8-4.4l-2.4-1.5c-1.1-.7-16.7-12-15.3-14.4.3-.5,1.1-.2,4.9-.4l4.9-.6A52.8,52.8,0,0,1,29.1,202c-1.9-.7-5.9-2.2-5.7-3.6s2.5-1.3,6.3-2.3a75.2,75.2,0,0,0,9.7-3.1,38,38,0,0,1-15,1.2c-2.2-.3-9.4-1.2-9.5-3.2s13.3-2.9,26.2-12.8l5.8-4.7c4.8-4,9-7.7,13.9-10.8A53,53,0,0,1,72,157.3c4.5-1.6,8.2-2.8,12.7-2,11.7,2,17.5,15.2,18.6,17.7C110.2,188.4,103.5,203.1,102.3,205.6Z"/>
      <path class="f" d="M129.6,72.7l-10.1.3-10.7.3H108l-8.2.2-12.6.4A25.7,25.7,0,0,1,96,62.7c1-.7,12.6-8.6,23.4-3C125.7,62.8,128.4,68.8,129.6,72.7Z"/>
      <path class="f" d="M174.5,71.2l-9.5.4-6.4.2-15.5.7a20.2,20.2,0,0,1,8.4-10.7c1.1-.7,5.7-3.5,10.9-2.4S171.8,64.8,174.5,71.2Z"/>
      <path class="l" d="M94.1,51.6a37.7,37.7,0,0,1,18.4-12.9c7.5-2.4,15.2-2.3,15.4-1.4s-2.8,1.2-8.7,3.6a123.8,123.8,0,0,0-15.8,7.9c-7.7,4.8-11.7,9.1-12.4,8.5S92.6,53.4,94.1,51.6Z"/>
      <path class="m" d="M104.3,101.6a31.5,31.5,0,0,0,8-1.2,39.2,39.2,0,0,0,10.3-4.6,27.8,27.8,0,0,0,4.1-3.2,13.5,13.5,0,0,0,2.7-3.4,13.2,13.2,0,0,0,1.4-5.2,26.3,26.3,0,0,0-.1-7.2,33.7,33.7,0,0,0-.9-3.7,25,25,0,0,0-3.2-6.9,17.8,17.8,0,0,0-5-5.2,18,18,0,0,0-8.5-3.2,18.2,18.2,0,0,0-8.5.9,15.1,15.1,0,0,1,8.7.1c8.5,2.9,12.9,14.3,11.4,23.3S115.1,99.5,104.3,101.6Z"/>
      <path class="n" d="M127.7,182.3c-9.9,7.4-2.4,21.3-14.1,42.8-5.1,9.3-9.7,12.6-11.9,14-9,5.5-18.8,4.5-22.8,3.8a91.4,91.4,0,0,0,24.9,5.4,84.4,84.4,0,0,0,22.6-1.1,83.6,83.6,0,0,0,31.1-12.5,71.7,71.7,0,0,0,16.9-15.1,57.1,57.1,0,0,0,11.2-21.1c1.7-6,1.9-10.8,2.3-20.3.1-3.3.2-6.7-.3-19.9-.4-11.3-.6-16.9-.9-22.6-.8-12.8-1.3-21.4-3-32.2a236.9,236.9,0,0,0-6.3-28.4h-.1c.1-.1,15.4,44.4-.8,77-2.3,4.6-10.4,20.9-26.6,26.4C138.8,182.3,134.1,177.4,127.7,182.3Z"/>
      <path class="n" d="M104.4,242.8a98.1,98.1,0,0,1-25.5.1,91.4,91.4,0,0,0,24.9,5.4,84.4,84.4,0,0,0,22.6-1.1,83.6,83.6,0,0,0,31.1-12.5,71.7,71.7,0,0,0,16.9-15.1,57.1,57.1,0,0,0,11.2-21.1c1.7-6,1.9-10.8,2.3-20.3.1-3.3.2-6.7-.3-19.9-.4-11.3-.6-16.9-.9-22.6-.8-12.8-1.3-21.4-3-32.2a236.9,236.9,0,0,0-6.3-28.4h-.1s9,38.2,6,74.8c-1.7,21.6-3.3,41.5-17.9,60.1C145.2,235.7,113.9,241.4,104.4,242.8Z"/>
      <path class="m" d="M106.3,189.4a44.7,44.7,0,0,1-4,16.2,36.1,36.1,0,0,1-9.6,13.3,34.2,34.2,0,0,1-18.9,7.7,38.7,38.7,0,0,1-22.1-6c-.6-.4-2.8-1.9-5.5-4s-4.1-3.4-5.4-4.5a42.9,42.9,0,0,0,17.9,7.5,42.1,42.1,0,0,0,26.5-4.3C100,207.7,105.2,193,106.3,189.4Z"/>
      <path class="m" d="M169.2,63.1a35.9,35.9,0,0,1,3,3.7,23.4,23.4,0,0,1,2.5,5.1,32.5,32.5,0,0,1,2.1,9.3,13.6,13.6,0,0,1,.2,4.4,11.6,11.6,0,0,1-2.5,5.6,11.8,11.8,0,0,1-4.8,3.3,21.1,21.1,0,0,1-6.7,1.6,30.2,30.2,0,0,1-8.4-.7c2.9.3,8.2.6,12.4-2.6C174,87.6,175.8,75,169.2,63.1Z"/>
      <path class="m" d="M93.5,64.7a29.2,29.2,0,0,0-8.4,16.6,30.6,30.6,0,0,0-.1,10,16.8,16.8,0,0,0,2.2,3.2,22.3,22.3,0,0,0,2.9,3.1,13.8,13.8,0,0,1-3.9-5.8c-.2-.7-.8-2.5-.4-6.8a33.7,33.7,0,0,1,3.8-14.4A32.8,32.8,0,0,1,93.5,64.7Z"/>
      <path class="l" d="M95.5,165.5c.3-.6-6.5-6.7-15.5-7a23.3,23.3,0,0,0-9.3,1.8c-4.9,1.9-8.8,5.2-8.4,5.9s2.1-.6,6.9-1.8a38.4,38.4,0,0,1,9.3-1.6,39.3,39.3,0,0,1,10.1,1C93.4,164.7,95.3,165.8,95.5,165.5Z"/>
      <path class="o" d="M62.4,159.2c7.2-6.8,13.2-8.3,17.4-8.4s9.5,2.4,12.3,0,1.8-8.4,1.5-9.5c-1.2-5.9-5.2-9.3-8.4-12.5a64.8,64.8,0,0,1-13.1-20.1c-1,7.6-1.8,14.2-2.5,19.7-.4,3-1,7.1-2,12.4a85.9,85.9,0,0,1-2.5,11.1C64.1,154.9,63.1,157.4,62.4,159.2Z"/>
      <path class="n" d="M127.9,30.9a14.9,14.9,0,0,1,7.4,1.9,16,16,0,0,1,6.3,6.7,2,2,0,0,1,.3-1.7c1.6-1.5,8.7,3.5,11,5.2,4.7,3.4,13.5,11.2,23.9,30.1a72.8,72.8,0,0,0-4.2-10.4,70.6,70.6,0,0,0-11.4-15.8c-3.6-3.7-8-8.2-15-11.6A46.8,46.8,0,0,0,127.9,30.9Z"/>
      <g>
        <path class="g" d="M161.8,11.3a43.5,43.5,0,0,0-16.5,2.9c-4.7,1.8-11.2,4.2-15,10.7a21,21,0,0,0-2.4,6,79.9,79.9,0,0,1,10.8-8.7A83.6,83.6,0,0,1,161.8,11.3Z"/>
        <path class="p" d="M161.8,11.3a83.6,83.6,0,0,0-23.1,10.9,79.9,79.9,0,0,0-10.8,8.7,80.4,80.4,0,0,0,19.6-8.5,65.8,65.8,0,0,0,8-5.6h-6l6.8-.6A70,70,0,0,0,161.8,11.3Z"/>
      </g>
      <g>
        <path class="p" d="M123.9,21.1a26,26,0,0,0,4,9.8,64.2,64.2,0,0,1-2.2-15.6,66.7,66.7,0,0,1,.8-11.6A28.5,28.5,0,0,0,123.9,21.1Z"/>
        <path class="g" d="M123.9,21.1a28.5,28.5,0,0,1,2.6-17.4c-.8.8-6.4,6.9-5.2,15.6a19,19,0,0,0,6.6,11.6A26,26,0,0,1,123.9,21.1Z"/>
      </g>
      <g>
        <path class="p" d="M113.8,15.5a35,35,0,0,0,14.1,15.4,59.4,59.4,0,0,1-11.5-15.1A67.3,67.3,0,0,1,110.5,0,35.9,35.9,0,0,0,113.8,15.5Z"/>
        <path class="g" d="M113.8,15.5A35.9,35.9,0,0,1,110.5,0a28.4,28.4,0,0,0-1,7.4c0,7.4,3.3,17.5,11.7,21.7a18.2,18.2,0,0,0,6.7,1.8A35,35,0,0,1,113.8,15.5Z"/>
      </g>
      <path class="q" d="M88.1,73.9h3.5a27.4,27.4,0,0,1,13-15.1,26.2,26.2,0,0,0-11.2,6.2A20.1,20.1,0,0,0,88.1,73.9Z"/>
      <path class="m" d="M151.1,62a22.7,22.7,0,0,0-6.8,7.4A24.8,24.8,0,0,0,142,76a32.6,32.6,0,0,0,.2,13,34.6,34.6,0,0,1,.6-8.8A41.2,41.2,0,0,1,151.1,62Z"/>
      <path class="q" d="M143.1,72.5l4.3-.2a19.4,19.4,0,0,1,11.7-13.1,20.3,20.3,0,0,0-6.8,2.1,22.1,22.1,0,0,0-4.3,3.2A21.2,21.2,0,0,0,143.1,72.5Z"/>
      <path class="m" d="M129.1,102.7a14.3,14.3,0,0,0,3.3,7c1.9,2.2,6,5.5,9.1,4.3s1.8-2,4-4.9a27.9,27.9,0,0,1,6-6Z"/>
      <path class="r" d="M156.3,97.3l-11-9.9-.6-.5a15,15,0,0,0-3.2-1.9,10.4,10.4,0,0,0-11.4,2.5,12.7,12.7,0,0,0-1.3,1.9,3.3,3.3,0,0,0-.6,1,14.9,14.9,0,0,0-.7,9.3,14.2,14.2,0,0,0,1.2,2.5l28.2-3.3A1.7,1.7,0,0,0,156.3,97.3Z"/>
      <path class="s" d="M156.9,98.9a1.9,1.9,0,0,1-.7,1.2l-14,9.1a4.7,4.7,0,0,1-5.3,0c-2.5-1.6-6.2-4.2-8.2-7Z"/>
      <path class="b" d="M128.7,102.2l28.2-3.3-11.4,1.7L129.4,103Z"/>
      <path class="l" d="M135,87.2a10.9,10.9,0,0,1,4.7,1.1c2.4,1.1,6.4,3.1,6.3,3.5s-1.4-.5-4.2-1.1-4.8-.7-7.2-2c-.5-.2-1.6-.8-1.5-1.2S134.6,87.1,135,87.2Z"/>
      <path class="m" d="M134.1,107.3a19.1,19.1,0,0,0,4.3.1,17.3,17.3,0,0,0,6.2-1.6,36.2,36.2,0,0,0,5.3-2.9,53.7,53.7,0,0,1,6.6-3.1l-4.7,3.1c-6.4,4.3-5.9,3.8-6.5,4.3l-2.3,1.5a5.6,5.6,0,0,1-2.3,1.2h-1l-1.6-.2-1.2-.6A26.7,26.7,0,0,1,134.1,107.3Z"/>
      <path class="h" d="M156.6,147a21.2,21.2,0,0,0-3.4,6.5c-.6-1.1-2.7-5.1-3.2-6.2l-3.6,12a61.9,61.9,0,0,0-14.1-18.5c.5,3.3.9,6.7,1.3,9.9l-7.1-10.6c0,1.5-.1,6.3-.1,7.9a81.8,81.8,0,0,0-10.7-11.3,116,116,0,0,1,11.7,14.5c.1-1.1.3-5.3.4-6.5,2.8,4.5,5.7,9.2,8.6,13.7-.4-4-.9-8.2-1.4-12.1a65.7,65.7,0,0,1,11.8,18.1c1.3-4.4,2.5-8.9,3.6-13.3.6,1,2.7,4.7,3.3,5.6a21,21,0,0,1,9.6-15.3A19,19,0,0,0,156.6,147Z"/>
      <path class="m" d="M19.8,193.4a112.2,112.2,0,0,0,13.3-1.3A121.8,121.8,0,0,0,52,187c4.9-1.6,8.8-3.2,11.6-4.4-4.7,2.5-8.7,4.4-11.7,5.8A74.7,74.7,0,0,1,39.4,193a52.3,52.3,0,0,1-7.6,1.4A36.8,36.8,0,0,1,19.8,193.4Z"/>
      <path class="m" d="M29.1,202c5.2.7,9.6,1,12.9,1.2a127.8,127.8,0,0,0,26.1-.9l7.3-1.4a88.1,88.1,0,0,1-15.7,3.6,69,69,0,0,1-13.5.7A72.6,72.6,0,0,1,29.1,202Z"/>
      <path class="l" d="M27.1,198c-.2-.8,8.8-1.9,23.8-7.5,8.6-3.2,13.8-5.7,14.3-4.8s-2.9,4-6.4,6.1a28,28,0,0,1-11.1,3.6C35.4,197.4,27.2,198.7,27.1,198Z"/>
      <path class="l" d="M41.3,208c-.1-.5,6.5-.2,17.9-2.3,6.5-1.2,10.5-2.4,10.7-1.6s-2.6,2.5-5.3,3.5a20.5,20.5,0,0,1-8.3,1.2C47.2,208.7,41.3,208.6,41.3,208Z"/>
      <path class="l" d="M20.2,190.4c-.2-.6,6.9-2.4,18.3-8.4,6.5-3.4,10.4-6,10.9-5.3s-1.9,3.5-4.5,5.5a22.9,22.9,0,0,1-8.5,4C26.8,189.1,20.4,191,20.2,190.4Z"/>
      <path class="t" d="M136.2,93.7a4.3,4.3,0,0,1-2.6-.5c-.9-.5-1.2-.9-.6-1a5.4,5.4,0,0,1,2.8.6C136.6,93.2,136.8,93.6,136.2,93.7Z"/>
    </g>
  </g>
</svg>
